<svg class="animated" id="freepik_stories-sad-unicorn" xmlns="http://www.w3.org/2000/svg" viewBox="0 0 500 500" version="1.1" xmlns:xlink="http://www.w3.org/1999/xlink" xmlns:svgjs="http://svgjs.com/svgjs"><style>svg#freepik_stories-sad-unicorn:not(.animated) .animable {opacity: 0;}svg#freepik_stories-sad-unicorn.animated #freepik--Leaves--inject-143 {animation: 6s Infinite  linear floating;animation-delay: 0s;}            @keyframes floating {                0% {                    opacity: 1;                    transform: translateY(0px);                }                50% {                    transform: translateY(-10px);                }                100% {                    opacity: 1;                    transform: translateY(0px);                }            }        </style><g id="freepik--background-simple--inject-143" class="animable" style="transform-origin: 251.798px 247.556px;"><path d="M485.17,220.13c-.56-39-15.88-76.61-39.2-105.65A204.14,204.14,0,0,0,398,71c-18.6-12-38.83-25.51-61.27-27.57A44.11,44.11,0,0,0,320,44.8c-20.93,6.24,20.49,28.48,25.9,31.73C288,51.77,228.1,26.61,164.81,29c-12.2.45-24.86,2.1-35.59,8.87s-19,19.83-17.43,32.78c1.32,10.7,8.55,22.66,1.77,31-1.94,2.39-4.69,3.8-7.38,5-13.85,6.3-28.79,9.6-41.91,17.62C44,136.73,30.1,159.53,23.68,183.52s-6.12,49.21-3.6,73.61c4.75,45.94,17.65,91.5,43.77,127.23,37.3,51,98.46,77,159.72,81.29,74.13,5.18,154.49-22,203.51-84.79,7.27-9.32,13.93-19.64,16.58-31.33s.55-25-7.59-32.67c-2.19-2.07-5-4.26-4.78-7.47.32-4.35,5.54-5.81,9.52-6.73,26.09-6,41-37.63,43.7-66.09A151,151,0,0,0,485.17,220.13Z" style="fill: #F472B6; transform-origin: 251.798px 247.556px;" id="elqf767xhcy4e" class="animable"></path><g id="elj33b0vwi59m"><path d="M485.17,220.13c-.56-39-15.88-76.61-39.2-105.65A204.14,204.14,0,0,0,398,71c-18.6-12-38.83-25.51-61.27-27.57A44.11,44.11,0,0,0,320,44.8c-20.93,6.24,20.49,28.48,25.9,31.73C288,51.77,228.1,26.61,164.81,29c-12.2.45-24.86,2.1-35.59,8.87s-19,19.83-17.43,32.78c1.32,10.7,8.55,22.66,1.77,31-1.94,2.39-4.69,3.8-7.38,5-13.85,6.3-28.79,9.6-41.91,17.62C44,136.73,30.1,159.53,23.68,183.52s-6.12,49.21-3.6,73.61c4.75,45.94,17.65,91.5,43.77,127.23,37.3,51,98.46,77,159.72,81.29,74.13,5.18,154.49-22,203.51-84.79,7.27-9.32,13.93-19.64,16.58-31.33s.55-25-7.59-32.67c-2.19-2.07-5-4.26-4.78-7.47.32-4.35,5.54-5.81,9.52-6.73,26.09-6,41-37.63,43.7-66.09A151,151,0,0,0,485.17,220.13Z" style="fill: rgb(255, 255, 255); opacity: 0.8; transform-origin: 251.798px 247.556px;" class="animable" id="el0djwdrnr6lv9"></path></g></g><g id="freepik--Clouds--inject-143" class="animable" style="transform-origin: 282.642px 211.855px;"><path d="M481.75,156.89H271.18a.51.51,0,0,1-.4-.19.51.51,0,0,1-.09-.43c0-.15,1-3.77,3.69-5.28a5.48,5.48,0,0,1,4.53-.32c6,1.93,11,1.56,14.72-1.1,1.56-1.11,2.12-2.72,2.71-4.41.86-2.48,1.84-5.29,6.18-6.74,3.23-1.08,6.5-.49,9.66.07,3.73.67,7.26,1.3,10-1.14,2.12-1.88,2.3-4.34,2.5-6.95.26-3.51.56-7.49,5.74-10.6,8.74-5.25,19-1.53,24.39,1.15a2.94,2.94,0,0,0,2.68.14c3.12-1.43,5.22-8.57,6.53-13.82A23.89,23.89,0,0,1,375.27,93c4.57-2.62,12.3-5.05,23.21-1.84,12,3.53,18.7,12.16,25.58,22.24h0l1.58,2.33,1.82,2.69c3.5,5.11,9.47,10.9,18,9.47,2.22-.37,4.37-.92,6.44-1.46,7.63-2,14.84-3.84,21.47,5.16,8.16,11.08,8.84,24.64,8.84,24.77a.5.5,0,0,1-.13.37A.51.51,0,0,1,481.75,156.89Zm-209.89-1H481.22c-.22-2.56-1.54-14.09-8.62-23.7-6.23-8.45-12.8-6.75-20.41-4.78-2.09.54-4.26,1.1-6.52,1.48-9.1,1.51-15.37-4.55-19-9.9-.62-.9-1.22-1.79-1.83-2.69s-1.05-1.56-1.58-2.33h0c-6.77-9.91-13.32-18.4-25-21.85-10.58-3.1-18-.76-22.43,1.75A22.91,22.91,0,0,0,365,107.52c-2.19,8.77-4.38,13.23-7.08,14.48a3.93,3.93,0,0,1-3.54-.16c-5.18-2.59-15.11-6.18-23.44-1.18-4.73,2.84-5,6.39-5.25,9.82-.2,2.68-.41,5.46-2.84,7.62-3.1,2.76-6.85,2.09-10.83,1.38-3.05-.55-6.19-1.11-9.18-.11-3.87,1.29-4.68,3.63-5.55,6.11-.61,1.78-1.25,3.61-3.06,4.9-4,2.86-9.25,3.27-15.61,1.24a4.53,4.53,0,0,0-3.74.24A7.59,7.59,0,0,0,271.86,155.89Z" style="fill: rgb(38, 50, 56); transform-origin: 376.443px 123.259px;" id="elgebly4m6kt7" class="animable"></path><path d="M184.76,112.8H83.57a.49.49,0,0,1-.39-.19.48.48,0,0,1-.09-.43A4.69,4.69,0,0,1,85,109.47a2.94,2.94,0,0,1,2.39-.17c2.82.9,5.13.74,6.84-.49a3.62,3.62,0,0,0,1.21-2,4.53,4.53,0,0,1,3.13-3.39,9.4,9.4,0,0,1,4.77,0c1.81.32,3.37.6,4.59-.48.94-.84,1-1.92,1.11-3.17.14-1.75.28-3.74,2.89-5.3,4.3-2.58,9.35-.77,12,.54a1.15,1.15,0,0,0,1.06.07c1.56-.72,2.64-5,3-6.47a11.75,11.75,0,0,1,5.53-7c2.23-1.28,6-2.47,11.35-.9,5.86,1.72,9.1,5.9,12.43,10.79l1.64,2.41c1.64,2.39,4.43,5.11,8.41,4.44,1.06-.17,2.08-.44,3.07-.7,3.76-1,7.3-1.88,10.59,2.58a24.12,24.12,0,0,1,4.3,12,.51.51,0,0,1-.13.37A.56.56,0,0,1,184.76,112.8Zm-100.48-1h99.94a23.42,23.42,0,0,0-4.06-11c-2.89-3.92-5.82-3.16-9.54-2.2-1,.26-2.06.54-3.15.72-4.5.75-7.6-2.23-9.4-4.87l-1.64-2.41h0c-3.23-4.72-6.35-8.77-11.89-10.4-3.95-1.16-7.61-.88-10.58.82a10.72,10.72,0,0,0-5.05,6.39c-1.08,4.3-2.17,6.5-3.55,7.14a2.16,2.16,0,0,1-1.93-.08c-2.44-1.22-7.11-2.92-11-.58-2.16,1.29-2.27,2.86-2.4,4.51-.1,1.35-.2,2.74-1.45,3.84-1.58,1.41-3.53,1.06-5.42.73a8.75,8.75,0,0,0-4.28-.07,3.6,3.6,0,0,0-2.51,2.78,4.42,4.42,0,0,1-1.57,2.48c-2,1.42-4.59,1.64-7.73.63a2,2,0,0,0-1.59.09A3.21,3.21,0,0,0,84.28,111.8Z" style="fill: rgb(38, 50, 56); transform-origin: 134.192px 96.3804px;" id="elgoesjimqqzb" class="animable"></path><path d="M286.68,343.75H185.48a.51.51,0,0,1-.48-.62,4.68,4.68,0,0,1,1.9-2.71,2.91,2.91,0,0,1,2.38-.17c2.82.9,5.13.73,6.85-.49a3.67,3.67,0,0,0,1.2-2,4.58,4.58,0,0,1,3.13-3.4,9.55,9.55,0,0,1,4.78,0c1.8.32,3.36.6,4.58-.49.94-.83,1-1.91,1.12-3.16.13-1.75.28-3.74,2.88-5.3,4.31-2.58,9.35-.77,12,.54a1.15,1.15,0,0,0,1.06.07c1.56-.72,2.64-5.05,3-6.47a11.75,11.75,0,0,1,5.53-7c2.24-1.28,6-2.48,11.35-.91,5.86,1.73,9.1,5.91,12.44,10.79l1.63,2.42c1.64,2.39,4.43,5.1,8.42,4.44,1-.18,2.07-.44,3.07-.7,3.75-1,7.3-1.89,10.59,2.58a24.2,24.2,0,0,1,4.3,12.05.54.54,0,0,1-.14.36A.52.52,0,0,1,286.68,343.75Zm-100.48-1h99.93a23.39,23.39,0,0,0-4.06-11c-2.89-3.92-5.82-3.16-9.53-2.2-1,.26-2.06.53-3.16.72-4.5.74-7.6-2.24-9.4-4.87L258.34,323h0c-3.23-4.72-6.34-8.77-11.89-10.4-3.95-1.16-7.61-.88-10.57.82a10.7,10.7,0,0,0-5.06,6.39c-1.07,4.3-2.17,6.5-3.55,7.13a2.11,2.11,0,0,1-1.92-.07c-2.44-1.22-7.12-2.92-11-.58-2.16,1.29-2.27,2.86-2.4,4.51-.1,1.35-.2,2.73-1.45,3.84-1.58,1.41-3.53,1.06-5.42.72a8.74,8.74,0,0,0-4.28-.06,3.59,3.59,0,0,0-2.5,2.78,4.53,4.53,0,0,1-1.57,2.48c-2,1.42-4.59,1.63-7.73.63a2,2,0,0,0-1.59.09A3,3,0,0,0,186.2,342.75Z" style="fill: rgb(38, 50, 56); transform-origin: 236.099px 327.322px;" id="elpa8dngymj9h" class="animable"></path></g><g id="freepik--Floor--inject-143" class="animable" style="transform-origin: 254.42px 424.1px;"><path d="M420.36,417.18S326.4,390,276.65,390s-71.16,1.85-97.41,8.64S74.91,426.43,53.5,431.37s-6.22,7.41,42.14,14.19,111.23,3.09,126.43,3.09-20,4.32-6.91,6.79,138.18,4.94,177.56-.62,80.84-7.4,70.47-18.51S420.36,417.18,420.36,417.18Z" style="fill: rgb(255, 255, 255); transform-origin: 254.412px 424.09px;" id="el0b0cukr24quo" class="animable"></path><path d="M306.58,458.69c-42.45,0-84.15-1.38-91.51-2.76-2.38-.45-3.37-1-3.4-1.79,0-1.38,2.9-2.29,9.15-3.91,1.28-.33,2.75-.71,3.72-1-.53,0-1.31-.06-2.47-.06-2.84,0-7.41.13-13.18.3-25.86.74-74,2.13-113.32-3.39-38.45-5.4-51.92-7.57-52.06-10.72,0-1.3,1.6-2.55,9.87-4.46,14.65-3.37,55.73-14.24,88.75-23,15.39-4.07,28.69-7.59,37-9.73,26.28-6.8,47.25-8.66,97.54-8.66,49.1,0,142.36,26.75,143.84,27.17s32.74,8.21,43.07,19.28c1.56,1.66,2.08,3.24,1.55,4.7-2.2,6-22.65,8.49-48.52,11.61-7.77.94-15.8,1.91-23.8,3C375.15,457.8,340.62,458.69,306.58,458.69Zm-93.91-4.56s.35.4,2.59.82c13.23,2.48,137.81,5,177.39-.62,8-1.13,16-2.1,23.82-3,24.52-3,45.71-5.52,47.7-11,.39-1.08-.05-2.28-1.34-3.67-10.15-10.87-42.27-18.91-42.59-19h0c-.94-.28-94.46-27.14-143.57-27.14-50.19,0-71.11,1.86-97.29,8.63-8.29,2.14-21.58,5.66-37,9.73-33,8.73-74.11,19.6-88.77,23-8.26,1.9-9.11,3-9.1,3.44.12,2.6,24.93,6.08,51.2,9.77,39.24,5.51,87.32,4.12,113.15,3.38,5.78-.17,10.35-.3,13.21-.3,3.87,0,4.31.25,4.38.82.1.75-.72,1-5.38,2.23-2.83.73-8.11,2.1-8.4,2.93Z" style="fill: rgb(38, 50, 56); transform-origin: 254.42px 424.1px;" id="elqvhhm2p0049" class="animable"></path></g><g id="freepik--Unicorn--inject-143" class="animable" style="transform-origin: 254.323px 276.68px;"><path d="M159.13,171.69a66.53,66.53,0,0,0,16.6-5.64c7.56-4,14.32-15.11,16.17-13.75s.71,8.4-2.23,14.69-7.82,8.1-13.1,8.69-13.39-.37-13.39-.37" style="fill: rgb(255, 255, 255); transform-origin: 175.964px 164.029px;" id="eltlwsk56qwtr" class="animable"></path><path d="M172.49,176.38a90.11,90.11,0,0,1-9.37-.57.5.5,0,0,1,.12-1c.08,0,8.12,1,13.28.38,4.58-.52,9.68-1.92,12.7-8.41s3.79-13,2.39-14.07c-.52-.38-3.1,2.42-4.81,4.28-3,3.28-6.77,7.35-10.84,9.5a67.79,67.79,0,0,1-16.74,5.69.5.5,0,0,1-.59-.4.5.5,0,0,1,.41-.58,66.5,66.5,0,0,0,16.45-5.59c3.92-2.07,7.61-6.08,10.57-9.3s4.9-5.32,6.14-4.41c2.25,1.65.75,9.25-2.07,15.3-3.25,7-8.93,8.46-13.5,9A38.81,38.81,0,0,1,172.49,176.38Z" style="fill: rgb(38, 50, 56); transform-origin: 175.956px 164.034px;" id="el6r890aj10zk" class="animable"></path><path d="M117.86,222.83s-36.65,6.92-50.24,19-18.71,33.58-9,48.44A23.61,23.61,0,0,0,84,300.75s-14.36-7.43-11-15.38,23.58-11.79,37.16-7.69,29,5.64,39.73,2.57,13.59-11.54,28.2-21.28a40.84,40.84,0,0,1,29.73-6.15s10.77-13.33-12.81-32.3-48.71-24.09-59.73-18.71S124.53,220,117.86,222.83Z" style="fill: #F472B6; transform-origin: 131.938px 250.581px;" id="elupze3afbn4" class="animable"></path><path d="M78.79,301.82a23.79,23.79,0,0,1-20.56-11.3c-9.38-14.32-5.32-36.35,9.06-49.1,13.4-11.88,48.29-18.66,50.43-19.07,2.74-1.19,4.28-4.28,6-7.85,2.35-4.72,5-10.06,11.3-13.14,11.29-5.51,36.92,0,60.26,18.77,9.39,7.56,14.56,15.13,15.35,22.51.7,6.5-2.33,10.33-2.46,10.49a.49.49,0,0,1-.5.18,40.66,40.66,0,0,0-29.34,6.08,92,92,0,0,0-14,11.63c-4.57,4.44-8.18,7.94-14.36,9.71-10.14,2.89-25.09,1.94-40-2.57-13.6-4.1-33.42-.09-36.56,7.41s10.65,14.67,10.79,14.74a.48.48,0,0,1,.26.5.5.5,0,0,1-.36.43A23.16,23.16,0,0,1,78.79,301.82ZM145.73,200.3a23.51,23.51,0,0,0-10.22,2c-6,2.93-8.57,8.11-10.84,12.68-1.87,3.77-3.49,7-6.61,8.35l-.1,0c-.37.07-36.68,7-50,18.85-14,12.44-18,33.88-8.88,47.8A23.15,23.15,0,0,0,82.6,300.53c-3.46-2-13-8.39-10.06-15.35,3.38-8,23.5-12.29,37.78-8,14.74,4.45,29.49,5.4,39.45,2.56,5.94-1.7,9.47-5.13,13.94-9.46a92.38,92.38,0,0,1,14.11-11.75,41.81,41.81,0,0,1,29.8-6.29c1.34-1.9,8.53-14.11-12.92-31.36C177.23,206.86,158.54,200.3,145.73,200.3Zm-27.87,22.53h0Z" style="fill: rgb(38, 50, 56); transform-origin: 131.957px 250.575px;" id="ela1eflseq9mw" class="animable"></path><path d="M73,285.37c3.33-7.94,23.58-11.79,37.16-7.69s29,5.64,39.73,2.57,13.59-11.54,28.2-21.28a40.84,40.84,0,0,1,29.73-6.15s7.77-9.64-4.39-24.18c-1,0-1.93,0-2.9.07-20,1.51-25.33,31.38-50.66,33.27S114,245.72,93.18,251s-34.77,24.57-28.35,37.8S84,300.75,84,300.75,69.67,293.32,73,285.37Z" style="fill: rgb(255, 255, 255); transform-origin: 136.76px 264.712px;" id="el756o2lrn9ar" class="animable"></path><path d="M83.2,301.28A20.74,20.74,0,0,1,64.38,289c-2.35-4.85-2.12-10.8.65-16.77,4.67-10.05,15.67-18.58,28-21.73,10.84-2.76,19,.78,27.64,4.52,8.33,3.61,16.94,7.34,29.15,6.43,13.2-1,20.82-9.64,28.2-18,6.59-7.48,12.82-14.54,22.45-15.27.89-.06,1.85-.09,2.95-.07a.51.51,0,0,1,.38.18c12.28,14.69,4.47,24.71,4.39,24.81a.51.51,0,0,1-.5.18,40.66,40.66,0,0,0-29.34,6.08,92,92,0,0,0-14,11.63c-4.57,4.44-8.18,7.94-14.36,9.71-10.14,2.89-25.09,1.94-40-2.57-13.6-4.1-33.42-.09-36.56,7.41h0c-3.12,7.43,10.65,14.67,10.79,14.74a.51.51,0,0,1,.26.54.49.49,0,0,1-.44.4S83.74,301.28,83.2,301.28Zm17.48-50.73a29.71,29.71,0,0,0-7.37.95c-12.08,3.07-22.83,11.39-27.38,21.19-2.64,5.68-2.87,11.33-.65,15.9C70,298.4,78.44,300,82.14,300.25c-3.78-2.29-12.39-8.4-9.6-15.07h0c3.38-8,23.5-12.29,37.78-8,14.74,4.45,29.49,5.4,39.45,2.56,5.94-1.7,9.47-5.13,13.94-9.46a92.38,92.38,0,0,1,14.11-11.75,41.86,41.86,0,0,1,29.8-6.29c1.1-1.57,6.22-10.28-4.41-23.13-1,0-1.84,0-2.64.07-9.22.7-15.32,7.61-21.77,14.93-7.51,8.52-15.27,17.32-28.88,18.33-12.45.92-21.57-3-29.62-6.5C113.92,253.2,107.8,250.55,100.68,250.55Z" style="fill: rgb(38, 50, 56); transform-origin: 136.741px 264.692px;" id="elxy1t0bvkt4" class="animable"></path><path d="M218.6,255.38s-14.36-12.3-31.79-5.12-22,21.27-29,30.76-23.84,16.4-33.32,14.61-12-3.59-12-3.59,25.12,26.4,47.16,22,33.84-26.4,44.09-31.53,21.53-3.84,21.53-3.84S225.78,263.84,218.6,255.38Z" style="fill: #F472B6; transform-origin: 168.884px 281.272px;" id="ele4xau9ni3ue" class="animable"></path><path d="M154.63,315.06c-20.68,0-42.28-22.43-42.51-22.68a.49.49,0,0,1,0-.67.51.51,0,0,1,.67-.08s2.66,1.77,11.85,3.51c9.71,1.83,26.28-5.44,32.83-14.42,1.58-2.17,3-4.58,4.58-7.12,5.17-8.54,11-18.22,24.59-23.81,17.51-7.21,32.16,5.09,32.3,5.21l.06.06c7.22,8.51,6.8,23.05,6.78,23.67a.46.46,0,0,1-.17.36.54.54,0,0,1-.38.12c-.12,0-11.26-1.21-21.25,3.79-3.54,1.77-7.3,5.63-11.66,10.1-8.07,8.3-18.13,18.62-32.56,21.47A25.87,25.87,0,0,1,154.63,315.06Zm-39.79-21.4c6.36,6,26.73,23.47,44.71,19.93,14.12-2.79,24.06-13,32-21.18,4.42-4.54,8.23-8.46,11.92-10.3,9-4.49,18.85-4.12,21.26-3.94,0-2.7-.34-15.1-6.52-22.43-.73-.6-14.68-11.84-31.25-5-13.25,5.46-19,15-24.11,23.4-1.56,2.56-3,5-4.64,7.19-6.73,9.23-23.8,16.7-33.82,14.81A62.55,62.55,0,0,1,114.84,293.66Z" style="fill: rgb(38, 50, 56); transform-origin: 168.889px 281.293px;" id="elvm7j1l9vivl" class="animable"></path><path d="M159.64,314.08c22.05-4.35,33.84-26.4,44.09-31.53s21.53-3.84,21.53-3.84.46-13.35-5.6-21.95c-6.68,1-16,3.59-27.82,9.75-26.08,13.61-19.65,32.51-38.55,38.56s-40.81-13-40.81-13S137.6,318.44,159.64,314.08Z" style="fill: rgb(255, 255, 255); transform-origin: 168.874px 285.663px;" id="el7v1u30z09gv" class="animable"></path><path d="M154.63,315.06c-20.68,0-42.28-22.43-42.51-22.68a.49.49,0,0,1,0-.69.51.51,0,0,1,.69,0c.21.19,21.92,18.83,40.32,12.93,8.85-2.83,12.06-8.6,15.78-15.27,4.2-7.54,9-16.08,22.7-23.25,10-5.23,19.44-8.53,28-9.8a.47.47,0,0,1,.48.2c6.1,8.64,5.72,21.7,5.7,22.26a.46.46,0,0,1-.17.36.53.53,0,0,1-.38.12c-.12,0-11.26-1.21-21.25,3.79-3.54,1.77-7.3,5.63-11.66,10.1-8.07,8.3-18.13,18.62-32.56,21.47l-.1-.49.1.49A25.87,25.87,0,0,1,154.63,315.06Zm-35.36-17.47c7.88,6.63,21.85,16.47,35.33,16.47a25,25,0,0,0,5-.47c14.12-2.79,24.06-13,32-21.18,4.42-4.54,8.23-8.46,11.92-10.3,9-4.49,18.85-4.12,21.26-3.94,0-2.52-.29-13.47-5.35-20.87-8.34,1.29-17.54,4.54-27.35,9.66-13.48,7-18.16,15.43-22.28,22.84-3.83,6.87-7.13,12.79-16.35,15.74C141.08,309.5,127.37,302.79,119.27,297.59Z" style="fill: rgb(38, 50, 56); transform-origin: 168.889px 285.676px;" id="elwcpuc83civd" class="animable"></path><path d="M184.34,169.3a30.25,30.25,0,0,0-9.17-11.71l-1.13-.82c-12.27-8.87-27.38-12.08-44-1.51S110.32,184,114.85,198.5s-3.31,19.27-8.79,19.46a9,9,0,0,1-7.93-4.54s1.32,11,7.93,14.54,18.51,2.08,25.11-3.21,8.5-13.78,13-24.54,6.24-21.91,23.8-21.91,24.92,5.1,24.92,5.1S187.06,175.25,184.34,169.3Z" style="fill: #F472B6; transform-origin: 145.51px 189.257px;" id="el2matlegxks2" class="animable"></path><path d="M115.07,230.45a19.56,19.56,0,0,1-9.25-2c-6.76-3.67-8.13-14.46-8.19-14.92A.49.49,0,0,1,98,213a.5.5,0,0,1,.59.24,8.36,8.36,0,0,0,7.47,4.27,9.84,9.84,0,0,0,7.68-4c2.39-3.37,2.62-8.49.65-14.79-4.08-13.09-2.49-32.42,15.4-43.81,14.77-9.4,30.18-8.87,44.56,1.53l.37.26.77.56a30.9,30.9,0,0,1,9.32,11.9c2.67,5.83,8.48,13.94,8.54,14a.5.5,0,0,1-.69.7c-.07-.05-7.48-5-24.64-5-15,0-18.07,8.08-21.68,17.43-.53,1.37-1.07,2.78-1.65,4.17-1,2.47-1.93,4.79-2.79,7-2.91,7.57-5.2,13.55-10.39,17.7C127.2,228.57,120.88,230.45,115.07,230.45Zm-16-15c.74,3.3,2.71,9.57,7.28,12.05,6.42,3.49,18.13,2,24.56-3.16,5-4,7.24-9.85,10.08-17.28.87-2.26,1.76-4.59,2.8-7.07.58-1.38,1.12-2.78,1.65-4.13,3.58-9.3,7-18.08,22.61-18.08,12.71,0,20.09,2.62,23.3,4.14a96.86,96.86,0,0,1-7.41-12.43h0a30,30,0,0,0-9-11.52l-.75-.54-.37-.27c-14.23-10.28-28.84-10.79-43.44-1.49-17.42,11.08-19,29.91-15,42.66,2.6,8.36,1,13.13-.79,15.67a10.86,10.86,0,0,1-8.46,4.44A9,9,0,0,1,99,215.47Z" style="fill: rgb(38, 50, 56); transform-origin: 145.533px 189.345px;" id="elhqqodgxwx3q" class="animable"></path><path d="M176.87,173.2c-7.36-7.93-34.74-14.54-44.18,2.65s-1.18,40.88-18.51,46.83c-15.34,5.26-13.53-6.91-15.67-7.56L98.4,215c.64,3.16,2.6,10.21,7.66,13,6.61,3.59,18.51,2.08,25.11-3.21s8.5-13.78,13-24.54,6.24-21.91,23.8-21.91a71.09,71.09,0,0,1,14.32,1.34C180.82,177.69,179,175.5,176.87,173.2Z" style="fill: rgb(255, 255, 255); transform-origin: 140.345px 197.502px;" id="elzeamsi9lwx" class="animable"></path><path d="M115.07,230.45a19.56,19.56,0,0,1-9.25-2c-5.28-2.87-7.29-10.25-7.91-13.29a.51.51,0,0,1,.27-.55.49.49,0,0,1,.59.11l0,0c.68.31,1,1.24,1.39,2.49.59,1.84,1.4,4.36,3.82,5.57,2.26,1.13,5.63,1,10-.56,10.09-3.46,11.24-13.08,12.57-24.21.9-7.58,1.83-15.42,5.66-22.38,3.35-6.11,9.27-9.84,17.12-10.81,10.94-1.35,23.24,3.08,27.87,8.06,1.91,2.07,3.76,4.24,5.48,6.47a.5.5,0,0,1,0,.57.51.51,0,0,1-.53.23A71,71,0,0,0,168,178.8c-15,0-18.07,8.08-21.68,17.43-.53,1.37-1.07,2.78-1.65,4.17-1,2.47-1.93,4.79-2.79,7-2.91,7.57-5.2,13.55-10.39,17.7C127.2,228.57,120.88,230.45,115.07,230.45Zm-14-8.87a13.09,13.09,0,0,0,5.19,5.94c6.43,3.49,18.13,2,24.56-3.16,5-4,7.24-9.85,10.08-17.28.87-2.26,1.76-4.59,2.8-7.07.58-1.38,1.12-2.78,1.65-4.13,3.58-9.3,7-18.08,22.61-18.08a74.35,74.35,0,0,1,13.11,1.09c-1.47-1.84-3-3.63-4.6-5.35-4.47-4.8-16.39-9.06-27-7.75-5.24.65-12.34,3-16.37,10.3-3.73,6.79-4.65,14.53-5.54,22-1.31,11-2.55,21.37-13.24,25-4.7,1.62-8.23,1.78-10.78.5A6.8,6.8,0,0,1,101.11,221.58Z" style="fill: rgb(38, 50, 56); transform-origin: 140.335px 197.517px;" id="el8fuc2w8s6dt" class="animable"></path><path d="M114.85,199h0a.5.5,0,0,1-.48-.52c.41-8.33,2.49-19.68,10.07-26.41,13.46-11.94,29.77-7.52,29.93-7.47a.5.5,0,0,1,.34.62.49.49,0,0,1-.61.34c-.16,0-16-4.31-29,7.26-7.33,6.5-9.34,17.57-9.74,25.71A.5.5,0,0,1,114.85,199Z" style="fill: rgb(38, 50, 56); transform-origin: 134.55px 181.38px;" id="elpwhscp4aog" class="animable"></path><path d="M236.18,295.38a113.25,113.25,0,0,1,20.6,50.1c4.36,29.9,2.38,44,1.58,48.12s5.15,3.17,7.73-4.16,4.75-45.55,4-66.14-1-24.36-1-24.36" style="fill: rgb(38, 50, 56); transform-origin: 253.21px 345.705px;" id="elcymrux7pg47" class="animable"></path><path d="M259.91,396.55a2.84,2.84,0,0,1-.66-.08c-.89-.24-1.72-1.15-1.38-3,.92-4.83,2.61-19.17-1.59-48a113.56,113.56,0,0,0-20.49-49.86.5.5,0,0,1,.08-.7.49.49,0,0,1,.7.07,114.68,114.68,0,0,1,20.7,50.35c4.22,28.93,2.51,43.41,1.58,48.28-.11.58-.17,1.59.66,1.81,1.46.39,4.48-1.59,6.11-6.22,2.5-7.14,4.74-44.74,3.93-66-.78-20.35-1-24.31-1-24.35a.5.5,0,1,1,1-.05s.2,4,1,24.36c.82,21.3-1.46,59.12-4,66.33C265,394.11,262,396.55,259.91,396.55Z" style="fill: rgb(38, 50, 56); transform-origin: 253.201px 345.672px;" id="el0nq1upl53qp9" class="animable"></path><path d="M318.14,306.87s12.49,19.93,17.27,43.31-4.52,40.91-4,44.63,4.25,4,8.24-5.05,7.44-17.53,7.44-41.71-4.25-49.42-4.25-49.42" style="fill: rgb(38, 50, 56); transform-origin: 332.615px 347.938px;" id="elb33fl42didr" class="animable"></path><path d="M333.43,397.74a1.56,1.56,0,0,1-.31,0c-1.14-.15-2-1.22-2.19-2.84-.16-1.11.41-3.11,1.28-6.14,2.15-7.53,6.17-21.55,2.71-38.46-4.71-23-17.08-42.95-17.2-43.15a.49.49,0,0,1,.15-.68.5.5,0,0,1,.69.15c.13.2,12.59,20.27,17.34,43.48,3.51,17.15-.55,31.32-2.73,38.94-.77,2.69-1.38,4.82-1.25,5.72.17,1.17.65,1.9,1.34,2,1.2.18,3.49-1.61,5.94-7.17,3.64-8.24,7.4-16.76,7.4-41.51,0-23.86-4.2-49.08-4.25-49.33a.5.5,0,0,1,1-.17c0,.25,4.26,25.56,4.26,49.5,0,25-3.8,33.58-7.48,41.91C337.92,394.94,335.5,397.74,333.43,397.74Z" style="fill: rgb(38, 50, 56); transform-origin: 332.626px 347.954px;" id="elodt63mkqb7s" class="animable"></path><path d="M124.58,160.3s-8.3-5.46-8.7-5.34,4,4.46,4,4.46,1.05.11,2.16.28A26.25,26.25,0,0,1,124.58,160.3Z" style="fill: rgb(255, 255, 255); transform-origin: 120.217px 157.629px;" id="eldag9rqug77" class="animable"></path><path d="M124.58,160.8l-.14,0a22.4,22.4,0,0,0-2.5-.58c-1.1-.17-2.14-.29-2.14-.29a.49.49,0,0,1-.3-.14c-4.29-4.25-4.2-4.61-4.13-4.9a.56.56,0,0,1,.36-.39c.27-.08.63-.19,9.12,5.4a.5.5,0,0,1,.18.63A.49.49,0,0,1,124.58,160.8Zm-4.5-1.86c.33,0,1.08.13,1.89.25-1.59-1-3.11-2-4.25-2.68C118.4,157.24,119.25,158.12,120.08,158.94Z" style="fill: rgb(38, 50, 56); transform-origin: 120.214px 157.64px;" id="eln0r4u4p062" class="animable"></path><path d="M131.86,164.94a31.55,31.55,0,0,0-4.37-3.09,31.15,31.15,0,0,0-3.21-1.63s-2.67-.6-3.47-.69l-1-.11s2.26,2.35,3.41,3.7a7.72,7.72,0,0,0,2.81,2.29C126.7,165.64,130.17,164.59,131.86,164.94Z" style="fill: rgb(255, 255, 255); transform-origin: 125.835px 162.432px;" id="el6a7vu1i8wa7" class="animable"></path><path d="M126.35,165.94a1.51,1.51,0,0,1-.46-.06,8.12,8.12,0,0,1-3-2.43c-1.12-1.33-3.36-3.67-3.38-3.69a.5.5,0,0,1-.08-.58.5.5,0,0,1,.52-.26l.94.11c.81.09,3.41.68,3.52.7a28.23,28.23,0,0,1,3.34,1.69,31.86,31.86,0,0,1,4.46,3.14.5.5,0,0,1,.12.6.51.51,0,0,1-.55.27,12.27,12.27,0,0,0-3.64.28A12.83,12.83,0,0,1,126.35,165.94Zm-5.17-5.85c.76.81,1.79,1.92,2.46,2.71a7.53,7.53,0,0,0,2.6,2.14,10.67,10.67,0,0,0,1.72-.21c.75-.13,1.62-.28,2.42-.34a28.92,28.92,0,0,0-3.14-2.1,32.66,32.66,0,0,0-3.15-1.61S122.21,160.27,121.18,160.09Z" style="fill: rgb(38, 50, 56); transform-origin: 125.877px 162.427px;" id="eld8hk24bz7cd" class="animable"></path><path d="M131.64,164.88a10.81,10.81,0,0,1,3.35,1.79c2,1.44,4.69,3.25,4.69,3.25a12.75,12.75,0,0,0-4,.73c-1.35.65-3.84.29-4.89,0,0,0-2.26-2.08-3.2-3.05a26,26,0,0,1-2-2.39L129,165A11.14,11.14,0,0,1,131.64,164.88Z" style="fill: rgb(255, 255, 255); transform-origin: 132.635px 167.932px;" id="elxfg1fngpzv9" class="animable"></path><path d="M133.61,171.52a13.17,13.17,0,0,1-2.9-.35.55.55,0,0,1-.21-.12c-.1-.09-2.28-2.1-3.22-3.08a23.44,23.44,0,0,1-2-2.44.5.5,0,0,1,0-.5.47.47,0,0,1,.41-.29l3.26-.24.85-.09a8,8,0,0,1,1.92,0l.08,0a11.22,11.22,0,0,1,3.53,1.86c2,1.42,4.65,3.23,4.67,3.25a.5.5,0,0,1-.26.91,12.49,12.49,0,0,0-3.75.68A5.56,5.56,0,0,1,133.61,171.52Zm-2.53-1.29c1.19.27,3.34.5,4.44,0a9.2,9.2,0,0,1,2.71-.66c-1-.67-2.38-1.63-3.53-2.47a10.87,10.87,0,0,0-3.14-1.69,6.77,6.77,0,0,0-1.68,0c-.23,0-.5.07-.89.1l-2.35.17a20.81,20.81,0,0,0,1.36,1.61C128.81,168.12,130.64,169.82,131.08,170.23Z" style="fill: rgb(38, 50, 56); transform-origin: 132.714px 167.939px;" id="elvko0rhvkkc" class="animable"></path><path d="M130.65,170.57a5,5,0,0,0,3.51,0c2.19-.67,4.09-1,5.52-.64s5.14,2.75,8,5.11a20.48,20.48,0,0,0-4.24,1.21c-1.54.73-4.1,1.59-6,1.19A37.72,37.72,0,0,1,130.65,170.57Z" style="fill: rgb(255, 255, 255); transform-origin: 139.165px 173.662px;" id="elblvqwkc8sf4" class="animable"></path><path d="M138.47,178a6.06,6.06,0,0,1-1.15-.11.67.67,0,0,1-.21-.09,38.25,38.25,0,0,1-6.87-7,.5.5,0,0,1,0-.61.49.49,0,0,1,.59-.12h0a4.66,4.66,0,0,0,3.15,0c2.7-.82,4.44-1,5.8-.64s5.25,2.79,8.2,5.2a.51.51,0,0,1-.23.88,20.06,20.06,0,0,0-4.12,1.17A12.91,12.91,0,0,1,138.47,178Zm-.84-1.07a10.43,10.43,0,0,0,5.61-1.17,16.62,16.62,0,0,1,3.31-1c-2.66-2.06-5.76-4-7-4.35s-2.76-.12-5.24.64a6.65,6.65,0,0,1-2.45.3A40.28,40.28,0,0,0,137.63,177Z" style="fill: rgb(38, 50, 56); transform-origin: 139.144px 173.627px;" id="elz2z8shfu1f" class="animable"></path><path d="M147.5,175.09l4.19,2.48-6.43,7.91a28.7,28.7,0,0,1-4.55-3.95c-1.54-1.84-3.29-4.1-3.29-4.1a14.71,14.71,0,0,0,3.84-.57C143,176.29,146.33,174.73,147.5,175.09Z" style="fill: rgb(255, 255, 255); transform-origin: 144.555px 180.258px;" id="elkbctw2mksra" class="animable"></path><path d="M145.26,186a.49.49,0,0,1-.28-.09,28.83,28.83,0,0,1-4.66-4c-1.52-1.82-3.28-4.09-3.3-4.11a.5.5,0,0,1,.39-.81,14.42,14.42,0,0,0,3.7-.55c.43-.14,1-.35,1.54-.57,2.32-.89,4-1.49,5-1.2l.11,0,4.19,2.48a.55.55,0,0,1,.24.34.55.55,0,0,1-.11.41l-6.43,7.91A.5.5,0,0,1,145.26,186Zm-6.85-8.1c.64.82,1.71,2.17,2.68,3.33a26.17,26.17,0,0,0,4.08,3.59l5.77-7.09-3.64-2.16c-.75-.17-2.87.65-4.29,1.19-.59.23-1.15.45-1.59.59A13.41,13.41,0,0,1,138.41,177.88Z" style="fill: rgb(38, 50, 56); transform-origin: 144.554px 180.298px;" id="elmi3tpn8s7t" class="animable"></path><path d="M177.33,170.69s-9.15-5.42-18.63-1.7-19,23.38-19,27.45,4.07,4.74,0,22-11.52,20.67-9.82,25.41,9.82,10.17,15.92,8.81,3.73-6.44,10.5-11.18,9.49-7.11,15.25-7.79a40.11,40.11,0,0,0,10.84-3.05s18.3,25.07,26.43,41.33S236,312.61,266.1,319.43c19.72,4.47,76.24,0,101.31-22s19-61.67,6.1-79.29-44.73-16.26-57.26-7.45S292.87,232.35,263.73,229,206.81,203.21,199,190.34,177.33,170.69,177.33,170.69Z" style="fill: rgb(255, 255, 255); transform-origin: 257.165px 244.339px;" id="elkm8xoxlkvv" class="animable"></path><path d="M284.71,321.56A89,89,0,0,1,266,319.92c-28.06-6.36-48.15-28.81-57.6-47.7-7.52-15-24-37.93-26.14-40.94a40.68,40.68,0,0,1-10.62,2.93c-5,.58-7.58,2.44-12.8,6.13l-2.22,1.57a14.87,14.87,0,0,0-5.19,6.36c-1.1,2.22-2,4.14-5.49,4.9-6.21,1.38-14.69-4.06-16.5-9.13-.86-2.39.38-4.45,2.26-7.56a57.17,57.17,0,0,0,7.55-18.13c2.92-12.42,1.62-16.09.67-18.76a8.93,8.93,0,0,1-.69-3.15c0-4.42,9.58-24.09,19.29-27.91,9.5-3.73,18.49,1.38,19.06,1.72s14.23,7.2,21.87,19.83c7.22,11.93,34.9,35,64.35,38.39,24.55,2.85,35.73-5.72,46.54-14,1.92-1.47,3.74-2.86,5.63-4.19,13.36-9.39,45.31-9.74,58,7.57,13.85,18.95,18.21,58.54-6.17,79.95C348.4,314.77,310.52,321.56,284.71,321.56Zm-102.3-91.4a.51.51,0,0,1,.41.2c.18.26,18.41,25.3,26.47,41.41,9.34,18.69,29.2,40.89,56.92,47.17,18.43,4.18,75.66.24,100.87-21.91,23.95-21,19.65-60,6-78.61-12.33-16.88-43.52-16.51-56.57-7.34-1.87,1.32-3.68,2.7-5.59,4.17-10.46,8-22.32,17.11-47.27,14.21-28.79-3.35-56.75-25.1-65.08-38.86-7.63-12.6-21.34-19.4-21.48-19.46l0,0c-.09-.05-9.06-5.25-18.2-1.66s-18.66,22.83-18.66,27a7.85,7.85,0,0,0,.64,2.81c1,2.8,2.34,6.62-.65,19.33A58.37,58.37,0,0,1,132.55,237c-1.8,3-2.88,4.76-2.18,6.71,1.64,4.6,9.68,9.74,15.34,8.48,3-.66,3.75-2.21,4.82-4.37a15.8,15.8,0,0,1,5.51-6.73l2.21-1.56c5.19-3.68,8.05-5.7,13.26-6.32a40.13,40.13,0,0,0,10.69-3A.41.41,0,0,1,182.41,230.16Z" style="fill: rgb(38, 50, 56); transform-origin: 257.196px 244.374px;" id="elb1u50ytfil" class="animable"></path><path d="M147,195.46l11.32,4.39a2.15,2.15,0,0,0,2.91-2.32h0a2.14,2.14,0,0,0-1.13-1.6l-10.92-5.73a2.16,2.16,0,0,0-3.07,1.31l-.4,1.33A2.16,2.16,0,0,0,147,195.46Z" style="fill: rgb(38, 50, 56); transform-origin: 153.438px 194.977px;" id="el30i2yhudh75" class="animable"></path><path d="M159.1,200.5a2.5,2.5,0,0,1-1-.19l-11.32-4.38h0a2.65,2.65,0,0,1-1.59-3.23l.4-1.33a2.61,2.61,0,0,1,1.51-1.7,2.66,2.66,0,0,1,2.27.09l10.92,5.72a2.66,2.66,0,0,1-1.22,5ZM147.17,195l11.32,4.38a1.63,1.63,0,0,0,1.63-.24,1.66,1.66,0,0,0,.61-1.54,1.68,1.68,0,0,0-.87-1.23l-10.93-5.72a1.66,1.66,0,0,0-1.41-.06,1.63,1.63,0,0,0-.94,1.06l-.4,1.33a1.66,1.66,0,0,0,1,2Z" style="fill: rgb(38, 50, 56); transform-origin: 153.383px 194.979px;" id="elbago5bhw4am" class="animable"></path><path d="M154.46,206.81a8.53,8.53,0,0,1-5.93-2.2A5.91,5.91,0,0,0,160,205,8.79,8.79,0,0,1,154.46,206.81Z" style="fill: rgb(38, 50, 56); transform-origin: 154.265px 206.956px;" id="el3raetwppais" class="animable"></path><path d="M154.3,209.78a6.32,6.32,0,0,1-6.26-5.07.5.5,0,0,1,.83-.46,8.06,8.06,0,0,0,5.59,2.06,8.26,8.26,0,0,0,5.22-1.74.51.51,0,0,1,.59,0,.48.48,0,0,1,.21.54A6.34,6.34,0,0,1,154.3,209.78ZM149.56,206a5.46,5.46,0,0,0,9.33.26,9.7,9.7,0,0,1-4.43,1A9.6,9.6,0,0,1,149.56,206Z" style="fill: rgb(38, 50, 56); transform-origin: 154.265px 206.949px;" id="el98k9bph00fm" class="animable"></path><path d="M182.41,230.66a12.6,12.6,0,0,0,4.7-4.35,41,41,0,0,0,2.32-5.42s1.55,6.65,0,10.52-3.41,4.33-3.41,4.33Z" style="fill: rgb(38, 50, 56); transform-origin: 186.264px 228.315px;" id="el9udn888kori" class="animable"></path><path d="M186,236.25a.47.47,0,0,1-.4-.22L182,231a.47.47,0,0,1-.08-.41.45.45,0,0,1,.25-.32,12.34,12.34,0,0,0,4.49-4.15,39.19,39.19,0,0,0,2.28-5.34.51.51,0,0,1,1,.05c.06.27,1.56,6.85,0,10.82s-3.66,4.61-3.74,4.63Zm-2.88-5.43,3.05,4.3c.54-.31,1.72-1.26,2.77-3.89s.64-6.26.31-8.46a37.15,37.15,0,0,1-1.72,3.77A12.36,12.36,0,0,1,183.14,230.82Z" style="fill: rgb(38, 50, 56); transform-origin: 186.275px 228.336px;" id="ele3gg8pot79f" class="animable"></path><path d="M163.12,216.79a3.33,3.33,0,1,1-6.65,0c0-1.84,3.33-6.89,3.33-6.89S163.12,215,163.12,216.79Z" style="fill: #F472B6; transform-origin: 159.795px 215.101px;" id="el2r7kuvigczo" class="animable"></path><path d="M159.8,220.62a3.84,3.84,0,0,1-3.83-3.83c0-1.93,3.06-6.63,3.41-7.16a.5.5,0,0,1,.42-.23h0a.5.5,0,0,1,.41.23c.35.53,3.41,5.23,3.41,7.16A3.83,3.83,0,0,1,159.8,220.62Zm0-9.79c-1.06,1.68-2.83,4.76-2.83,6a2.83,2.83,0,1,0,5.65,0C162.62,215.58,160.85,212.51,159.8,210.83Z" style="fill: rgb(38, 50, 56); transform-origin: 159.795px 215.01px;" id="el8n693yenrwy" class="animable"></path><path d="M136,244.71a2.28,2.28,0,1,1-1.44-2.47A2,2,0,0,1,136,244.71Z" style="fill: rgb(38, 50, 56); transform-origin: 133.769px 244.37px;" id="elg69nzpd42vr" class="animable"></path><path d="M134.25,246.25a3.24,3.24,0,0,1-1.14-.21,3.09,3.09,0,0,1-1.54-1.27,2,2,0,0,1,1.19-3.08,3,3,0,0,1,2,.08,3.07,3.07,0,0,1,1.53,1.27,2,2,0,0,1-1.18,3.09A3,3,0,0,1,134.25,246.25Zm-.65-3.69a1.64,1.64,0,0,0-.54.08,1.12,1.12,0,0,0-.75.65,1.16,1.16,0,0,0,.12,1,2.07,2.07,0,0,0,1,.83,2,2,0,0,0,1.33.07,1.09,1.09,0,0,0,.74-.64h0a1.12,1.12,0,0,0-.12-1,2,2,0,0,0-1-.84A2.21,2.21,0,0,0,133.6,242.56Z" style="fill: rgb(38, 50, 56); transform-origin: 133.934px 243.903px;" id="elahk53cuqqdc" class="animable"></path><path d="M138.24,251.84a.5.5,0,0,1-.21-1,18.14,18.14,0,0,1,6.6-1.54.5.5,0,0,1,.5.5.5.5,0,0,1-.5.5,17.38,17.38,0,0,0-6.18,1.45A.52.52,0,0,1,138.24,251.84Z" style="fill: rgb(38, 50, 56); transform-origin: 141.377px 250.575px;" id="ela1wjwkpv3h" class="animable"></path><path d="M262.41,204s15.68,9.63,16.24,18.51S267.7,232.31,263,231s-6.8-4-5.29-10S262.41,204,262.41,204Z" style="fill: #F472B6; transform-origin: 267.948px 217.74px;" id="el7kl5ajaoiox" class="animable"></path><path d="M267,232a16.36,16.36,0,0,1-4.18-.49c-5.35-1.5-7.09-4.78-5.63-10.61,1.49-6,4.69-16.91,4.72-17a.5.5,0,0,1,.3-.32.46.46,0,0,1,.44,0c.65.4,15.91,9.87,16.48,18.9a7.62,7.62,0,0,1-2.83,6.77C273.83,231.24,270.15,232,267,232Zm-4.31-27.2c-.71,2.43-3.25,11.21-4.53,16.34-1.33,5.32.1,8.05,4.93,9.4,3,.85,9.09.78,12.58-2.05a6.67,6.67,0,0,0,2.46-5.93C277.67,214.94,265.48,206.57,262.71,204.76Z" style="fill: rgb(38, 50, 56); transform-origin: 267.934px 217.763px;" id="elgl3i773fc54" class="animable"></path><path d="M216.34,180.76s13.22.56,30.78,10,23.22,24,20.77,33.05-11.14,8.12-24,2.83-22.47-32.29-29.46-38.71-9.44-7.74-9.44-7.74Z" style="fill: rgb(255, 255, 255); transform-origin: 236.711px 205.408px;" id="el6b5q4ofld5" class="animable"></path><path d="M259,231.13c-3.75,0-8.69-1.32-15.26-4-8.28-3.4-15.27-15.7-20.89-25.58-3.33-5.85-6.21-10.91-8.72-13.22-6.82-6.27-9.32-7.66-9.34-7.67a.49.49,0,0,1-.24-.58.5.5,0,0,1,.5-.36l11.33.57c.29,0,13.63.73,31,10.06s23.64,23.94,21,33.62c-.83,3.05-2.33,5.08-4.61,6.2A10.61,10.61,0,0,1,259,231.13Zm-52.2-50.35a101.13,101.13,0,0,1,8,6.78c2.63,2.42,5.54,7.54,8.91,13.47,5.54,9.74,12.44,21.87,20.4,25.15,9.59,3.95,15.51,4.89,19.22,3.07,2-1,3.34-2.81,4.09-5.57,2.51-9.3-3.73-23.44-20.53-32.48-17.24-9.27-30.43-9.94-30.56-9.94h0Z" style="fill: rgb(38, 50, 56); transform-origin: 236.744px 205.428px;" id="elye2l9dq1ge" class="animable"></path><path d="M183.48,167.54s6,6.8,21.53,11.14,29.27.94,39.28,19.83-4.35,27.19-14.73,24.17-21.91-18.32-27.95-26.82S183.48,167.54,183.48,167.54Z" style="fill: #F472B6; transform-origin: 215.579px 195.413px;" id="el1fw3eye4fun" class="animable"></path><path d="M233.86,223.79a16.09,16.09,0,0,1-4.44-.63c-11.36-3.31-24-21.15-28.22-27-6-8.41-18-28.15-18.15-28.35a.51.51,0,0,1,.13-.66.49.49,0,0,1,.67.07c.06.06,6.16,6.74,21.29,11a98.92,98.92,0,0,0,11,2.23c11.21,1.82,20.89,3.38,28.56,17.84,5.9,11.15,2.9,17.58.59,20.43A14.84,14.84,0,0,1,233.86,223.79Zm-48.19-53.64c3.58,5.81,11.76,19,16.35,25.42,4.12,5.79,16.65,23.42,27.68,26.63,5.46,1.59,11.57-.11,14.84-4.13,3.73-4.58,3.48-11.45-.7-19.33-7.43-14-16.88-15.55-27.83-17.32a97.85,97.85,0,0,1-11.14-2.26C194.84,176.35,188.76,172.54,185.67,170.15Z" style="fill: rgb(38, 50, 56); transform-origin: 215.559px 195.421px;" id="elagg2sxoneon" class="animable"></path><path d="M164.12,170.74a61.32,61.32,0,0,0,16.54-3.82c7.68-3.18,15.37-13.68,17-12.09s-.23,8.59-3.72,14.64-8.39,7.32-13.52,7.32-12.81-1.91-12.81-1.91" style="fill: rgb(255, 255, 255); transform-origin: 181.189px 165.729px;" id="eloog5gh40ee" class="animable"></path><path d="M180.42,177.29c-5.12,0-12.61-1.85-12.93-1.93a.49.49,0,0,1-.36-.6.5.5,0,0,1,.6-.37c.08,0,7.69,1.9,12.69,1.9,4.45,0,9.48-.84,13.08-7.07,3.7-6.39,5.08-12.79,3.81-14-.43-.42-3.2,2.12-5,3.79-3.25,3-7.29,6.69-11.43,8.4a62.39,62.39,0,0,1-16.7,3.86.5.5,0,0,1-.07-1,61,61,0,0,0,16.39-3.78c4-1.65,7.95-5.29,11.14-8.21s5.3-4.86,6.4-3.78c2,1.93-.29,9.44-3.64,15.25C190.49,176.43,184.88,177.29,180.42,177.29Z" style="fill: rgb(38, 50, 56); transform-origin: 181.215px 165.744px;" id="el22k6kklb579" class="animable"></path><path d="M254,297.22s19,38.22,22.18,51.49,3.56,38.42,3,45.94-1,10.89,3.36,9.71,7.13-22,7.53-38,1-50.89.2-56.63" style="fill: rgb(255, 255, 255); transform-origin: 272.332px 350.905px;" id="el9vlts49zsbt" class="animable"></path><path d="M281,405.09a2.45,2.45,0,0,1-1.63-.52c-1.45-1.21-1.2-4.26-.8-9.31l.05-.65c.57-7.28.25-32.35-3-45.79-3.12-13.06-21.95-51-22.14-51.38a.5.5,0,1,1,.89-.44c.19.38,19.08,38.42,22.22,51.59,3.24,13.53,3.56,38.77,3,46.1l-.06.65c-.36,4.57-.6,7.58.45,8.46.44.36,1.2.38,2.34.07,3.75-1,6.73-20.24,7.16-37.55.47-19,.94-51.2.2-56.56a.5.5,0,0,1,.43-.56.5.5,0,0,1,.56.43c.84,6.06.12,43.93-.19,56.72-.35,14.14-2.8,37.1-7.89,38.49A6.61,6.61,0,0,1,281,405.09Z" style="fill: rgb(38, 50, 56); transform-origin: 272.231px 350.88px;" id="el9u39e7mkpfb" class="animable"></path><path d="M327.17,256.84s-9.83,11.69-5.05,33.74S338.86,327,343.38,353s-6.11,45.43-4.52,49.68,6.38.53,8-2.13,10.37-27.36,13.29-44.37-.27-35.07,2.92-43,25.24-31.88,19.93-57.92" style="fill: rgb(255, 255, 255); transform-origin: 352.315px 329.934px;" id="el81276ai93m8" class="animable"></path><path d="M341.22,405.13H341a3,3,0,0,1-2.56-2.25c-.57-1.54.21-4.54,1.4-9.08,2.29-8.72,6.11-23.3,3.1-40.69C340.44,339,335.8,328.34,331.31,318c-3.85-8.85-7.48-17.21-9.67-27.32-4.78-22,5.05-34.06,5.15-34.18a.5.5,0,0,1,.77.65c-.1.11-9.62,11.79-4.95,33.31,2.18,10,5.79,18.34,9.62,27.14,4.51,10.38,9.18,21.11,11.64,35.32,3.05,17.6-.8,32.32-3.11,41.11-1.06,4-1.9,7.24-1.43,8.48.38,1,.94,1.53,1.71,1.6,1.82.16,4.34-2.11,5.36-3.8,1.55-2.58,10.28-27.09,13.22-44.2,1.43-8.31,1.39-16.86,1.36-24.4,0-7.83-.06-14.6,1.6-18.74a57.06,57.06,0,0,1,4.66-7.93c7.21-11.16,19.29-29.84,15.24-49.71a.5.5,0,0,1,.39-.59.51.51,0,0,1,.59.39c4.13,20.27-8.08,39.16-15.38,50.45a58.16,58.16,0,0,0-4.58,7.76c-1.58,4-1.55,10.64-1.52,18.36s.07,16.19-1.37,24.58c-3,17.21-11.78,41.94-13.35,44.54C346.15,402.69,343.48,405.13,341.22,405.13Z" style="fill: rgb(38, 50, 56); transform-origin: 352.311px 329.931px;" id="elqdwlgjgk27q" class="animable"></path><path d="M402.91,183.19c-20.94,0-39.73,20.95-42.94,24.72a33.85,33.85,0,0,1,8.77,5.19,17,17,0,0,1,11.45,0c8.34,2.88,20.13,24.15,15.53,37.38s-19,15.82-31.92,38-8.91,59.8-25.3,63.83-25.59-10.35-25.59-10.35S315.21,354,329,362s32.2,4.61,41.4-2,18.12-18.11,17.83-33.35,12.65-15.53,30.48-24.44,35.65-28.76,36.23-54.92S425.91,183.19,402.91,183.19Z" style="fill: rgb(255, 255, 255); transform-origin: 383.929px 274.925px;" id="elqsavsn0hss" class="animable"></path><path d="M347.55,367.24a37.35,37.35,0,0,1-18.79-4.77c-13.84-8.08-16.32-20.35-16.34-20.47a.5.5,0,0,1,.91-.36c.09.14,9.21,14,25.05,10.13,9.11-2.23,11.73-15.36,14.75-30.56,2.2-11,4.7-23.55,10.24-33,6.77-11.59,14-17.94,19.89-23.05,5.49-4.8,9.82-8.59,12-14.81,2.07-5.93.86-14.49-3.22-22.9-3.39-7-8.21-12.54-12-13.85a16.53,16.53,0,0,0-11.12,0,.51.51,0,0,1-.49-.08,33.63,33.63,0,0,0-8.64-5.12.5.5,0,0,1-.29-.34.52.52,0,0,1,.1-.45c3.54-4.15,22.27-24.89,43.32-24.89,9,0,19.43,5.62,29.41,15.82,14.16,14.48,23.45,34.09,23.13,48.81-.61,27.69-20.05,47.12-36.51,55.35-4.39,2.2-8.52,3.89-12.16,5.38-11.38,4.65-18.25,7.45-18,18.61.35,18.53-12.5,29.79-18,33.77C364.93,364.58,356.36,367.24,347.55,367.24Zm-33.38-22.9a34.1,34.1,0,0,0,15.09,17.26c13.16,7.68,31.11,5,40.86-2,5.41-3.89,18-14.89,17.62-32.94-.22-11.84,7.29-14.91,18.66-19.56,3.63-1.48,7.73-3.16,12.1-5.34,16.21-8.11,35.35-27.24,35.95-54.48.32-14.47-8.86-33.79-22.85-48.09-9.79-10-20-15.52-28.69-15.52-19.85,0-37.7,19-42.11,24a34.45,34.45,0,0,1,8,4.82,17.44,17.44,0,0,1,11.51.08c4.09,1.41,9,7,12.57,14.35,4.26,8.77,5.45,17.4,3.27,23.66-2.25,6.47-6.68,10.34-12.28,15.24-5.78,5.06-13,11.36-19.68,22.81-5.46,9.34-7.93,21.76-10.12,32.73-3.09,15.53-5.76,28.94-15.49,31.33C326.08,355.83,317.59,348.25,314.17,344.34Z" style="fill: rgb(38, 50, 56); transform-origin: 383.94px 274.982px;" id="elczoevzjj6nt" class="animable"></path><path d="M396.72,207.17c-14.87-3.52-25.67,1.09-30.63,4a30,30,0,0,1,2.65,1.94,17,17,0,0,1,11.45,0c8.34,2.88,20.13,24.15,15.53,37.38s-19,15.82-31.92,38c-11,18.88-9.74,49-19.29,60A17.9,17.9,0,0,0,355.14,341c8.31-11.72,5.92-32.49,15.75-45.72s31.5-17,40.57-34S417.51,212.08,396.72,207.17Z" style="fill: #F472B6; transform-origin: 380.404px 277.195px;" id="elpangl7yr6tq" class="animable"></path><path d="M344.51,348.94a.5.5,0,0,1-.37-.83c4.7-5.4,6.78-15.85,9-26.91s4.7-23.54,10.24-33c6.77-11.59,14-17.94,19.89-23.05,5.49-4.8,9.82-8.59,12-14.81,2.07-5.93.86-14.49-3.22-22.9-3.39-7-8.21-12.54-12-13.85a16.53,16.53,0,0,0-11.12,0,.51.51,0,0,1-.49-.08,30.55,30.55,0,0,0-2.6-1.91.5.5,0,0,1-.23-.43.52.52,0,0,1,.25-.42c5.16-3,16-7.58,31-4h0c7.13,1.68,12.75,6.66,16.24,14.38,5.41,12,4.92,29-1.17,40.4-5.12,9.59-14.12,15-22.83,20.22-6.94,4.16-13.49,8.09-17.78,13.87-5.08,6.83-6.86,15.75-8.58,24.38-1.62,8.05-3.14,15.66-7.16,21.34a18.46,18.46,0,0,1-10.92,7.65ZM374.43,211.6a18,18,0,0,1,5.92,1c4.09,1.41,9,7,12.57,14.35,4.26,8.77,5.45,17.4,3.27,23.66-2.25,6.47-6.68,10.34-12.28,15.24-5.78,5.06-13,11.36-19.68,22.81-5.46,9.34-7.93,21.76-10.12,32.71-2.08,10.43-4.05,20.31-8.24,26.14a17.71,17.71,0,0,0,8.86-6.84c3.9-5.5,5.41-13,7-21,1.75-8.73,3.56-17.76,8.76-24.77,4.42-5.95,11-9.92,18.07-14.14C397.15,275.67,406,270.33,411,261c5.86-11,6.35-28,1.14-39.51-3.36-7.43-8.74-12.21-15.56-13.82-14-3.3-24.29.62-29.56,3.55.67.47,1.26.9,1.8,1.34A17,17,0,0,1,374.43,211.6Z" style="fill: rgb(38, 50, 56); transform-origin: 380.433px 277.216px;" id="el1jm1vb6d3y8" class="animable"></path><path d="M402.91,183.19c-20.94,0-39.73,20.95-42.94,24.72a35.48,35.48,0,0,1,4.82,2.4c4.66-5.27,14.38-12.75,32.08-12.75,27.31,0,39.39,26.46,42,51.47s-8.34,34.51-24.44,43.42-35.66,14.67-38.53,27.32,2.3,22.42-3.17,32.49c-3.75,6.91-10.9,11.39-18.83,14A38.59,38.59,0,0,0,370.41,360c9.2-6.61,18.12-18.11,17.83-33.35s12.65-15.53,30.48-24.44,35.65-28.76,36.23-54.92S425.91,183.19,402.91,183.19Z" style="fill: #F472B6; transform-origin: 404.429px 274.725px;" id="el4bbtz99hbu8" class="animable"></path><path d="M353.88,366.73a.5.5,0,0,1-.16-1c6.15-2,14.36-6,18.55-13.74,3-5.56,2.71-11.16,2.39-17.08-.27-4.77-.54-9.71.73-15.28,2.23-9.8,14.1-15.51,26.68-21.55,4-1.93,8.17-3.93,12.09-6.1,17.56-9.72,26.62-19.44,24.19-42.93-1.24-12-7.89-51-41.48-51-17,0-26.63,6.84-31.7,12.58a.52.52,0,0,1-.64.1,35.65,35.65,0,0,0-4.75-2.37.5.5,0,0,1-.29-.34.52.52,0,0,1,.1-.45c3.54-4.15,22.27-24.89,43.32-24.89,9,0,19.43,5.62,29.41,15.82,14.16,14.48,23.45,34.09,23.13,48.81-.61,27.69-20.05,47.12-36.51,55.35-4.39,2.2-8.52,3.89-12.16,5.38-11.38,4.65-18.25,7.45-18,18.61.35,18.53-12.5,29.79-18,33.77a39.47,39.47,0,0,1-16.76,6.3Zm43-169.67c12.72,0,23,5.58,30.67,16.57,6.18,8.9,10.37,21.46,11.8,35.35,2.74,26.41-10.12,35.84-24.69,43.91-3.95,2.18-8.12,4.19-12.15,6.12-12.35,5.94-24,11.54-26.14,20.87-1.23,5.44-1,10.3-.7,15,.33,6.08.65,11.81-2.51,17.62-2.68,4.94-7.28,9-13.48,12a34.7,34.7,0,0,0,10.45-4.85c5.41-3.89,18-14.89,17.62-32.94-.22-11.84,7.29-14.91,18.66-19.56,3.63-1.48,7.73-3.16,12.1-5.34,16.21-8.11,35.35-27.24,35.95-54.48.32-14.47-8.86-33.79-22.85-48.09-9.79-10-20-15.52-28.69-15.52-19.85,0-37.7,19-42.11,24a37.18,37.18,0,0,1,3.89,2C370,203.84,379.78,197.06,396.87,197.06Z" style="fill: rgb(38, 50, 56); transform-origin: 404.376px 274.708px;" id="el7cpz6c9sppm" class="animable"></path></g><g id="freepik--Leaves--inject-143" class="animable" style="transform-origin: 253.375px 211.911px;"><path d="M261.12,86.26s-7.49-3.5-13-3-13,15-13,15a21.47,21.47,0,0,1,13-.5C255.13,99.74,261.62,93.75,261.12,86.26Z" style="fill: #F472B6; transform-origin: 248.134px 90.7356px;" id="elkq0g7nqojnb" class="animable"></path><path d="M235.15,98.75a.52.52,0,0,1-.37-.16.5.5,0,0,1-.07-.57c.31-.6,7.68-14.74,13.38-15.26s12.93,2.9,13.24,3a.47.47,0,0,1,.29.42,11.9,11.9,0,0,1-4.29,10.08A10.23,10.23,0,0,1,248,98.23a21,21,0,0,0-12.66.48A.65.65,0,0,1,235.15,98.75Zm7.33-2.28a21,21,0,0,1,5.79.8,9.24,9.24,0,0,0,8.44-1.74,10.89,10.89,0,0,0,3.93-8.94c-1.38-.61-7.74-3.25-12.46-2.83-4.29.39-10.11,10.23-12,13.6A22.32,22.32,0,0,1,242.48,96.47Z" style="fill: rgb(38, 50, 56); transform-origin: 248.153px 90.7281px;" id="el4fqnn391oki" class="animable"></path><path d="M235.15,98.75a.54.54,0,0,1-.37-.16.51.51,0,0,1,0-.71c.26-.24,6.4-5.86,13.1-7.33l1.16-.25c5.77-1.26,10.76-2.34,11.59-4.24a.51.51,0,0,1,.66-.26.5.5,0,0,1,.26.66c-1,2.37-6,3.45-12.3,4.82l-1.16.25c-6.42,1.41-12.57,7-12.63,7.08A.51.51,0,0,1,235.15,98.75Z" style="fill: rgb(38, 50, 56); transform-origin: 248.114px 92.2555px;" id="elpiuwrleajs" class="animable"></path><path d="M260.45,86a5.18,5.18,0,0,0,2.06-1.19,13,13,0,0,0,1.66-2.22s1.19.4.95,1.27-2.93,2.22-3.88,3C261.24,86.86,261.08,85.83,260.45,86Z" style="fill: rgb(38, 50, 56); transform-origin: 262.801px 84.725px;" id="elapdmaqfkopo" class="animable"></path><path d="M261.24,87.36a.47.47,0,0,1-.17,0,.52.52,0,0,1-.32-.4.94.94,0,0,0-.2-.47.48.48,0,0,1-.59-.35.51.51,0,0,1,.36-.61,4.57,4.57,0,0,0,1.84-1,13.33,13.33,0,0,0,1.58-2.12.51.51,0,0,1,.59-.22c.57.19,1.56.82,1.27,1.87-.19.71-1.19,1.39-2.69,2.35a14.66,14.66,0,0,0-1.35.91A.47.47,0,0,1,261.24,87.36Zm3.12-4.13a12,12,0,0,1-1.5,1.92l0,0c.76-.49,1.73-1.16,1.82-1.48S264.53,83.35,264.36,83.23Z" style="fill: rgb(38, 50, 56); transform-origin: 262.799px 84.7689px;" id="elogwl41vz8s" class="animable"></path><path d="M471.61,339.44s-7.49-3.5-13-3-13,15-13,15a21.47,21.47,0,0,1,13-.5C465.62,352.93,472.11,346.93,471.61,339.44Z" style="fill: #F472B6; transform-origin: 458.624px 343.916px;" id="elb75snbaotim" class="animable"></path><path d="M445.64,351.93a.52.52,0,0,1-.37-.16.5.5,0,0,1-.07-.57c.31-.6,7.68-14.74,13.38-15.25s12.93,2.89,13.24,3a.48.48,0,0,1,.29.42,11.92,11.92,0,0,1-4.28,10.08,10.25,10.25,0,0,1-9.34,1.92,21.25,21.25,0,0,0-12.66.48A.41.41,0,0,1,445.64,351.93Zm7.33-2.28a21,21,0,0,1,5.79.8,9.24,9.24,0,0,0,8.44-1.74,10.89,10.89,0,0,0,3.93-8.94c-1.38-.6-7.73-3.26-12.46-2.83-4.29.39-10.11,10.23-12,13.6A22.69,22.69,0,0,1,453,349.65Z" style="fill: rgb(38, 50, 56); transform-origin: 458.643px 343.914px;" id="elv3btlnlf7l" class="animable"></path><path d="M445.64,351.93a.54.54,0,0,1-.37-.16.51.51,0,0,1,0-.71c.26-.24,6.41-5.86,13.1-7.32l1.16-.26c5.78-1.26,10.76-2.34,11.59-4.24a.52.52,0,0,1,.66-.26.5.5,0,0,1,.26.66c-1,2.37-6,3.45-12.29,4.82l-1.17.25c-6.42,1.41-12.57,7-12.63,7.08A.51.51,0,0,1,445.64,351.93Z" style="fill: rgb(38, 50, 56); transform-origin: 458.604px 345.437px;" id="elrl7sa2wu4qe" class="animable"></path><path d="M470.94,339.17A5.18,5.18,0,0,0,473,338a13,13,0,0,0,1.66-2.22s1.19.4.95,1.27-2.93,2.22-3.88,3C471.73,340,471.58,339,470.94,339.17Z" style="fill: rgb(38, 50, 56); transform-origin: 473.291px 337.915px;" id="el8zna43jqwcl" class="animable"></path><path d="M471.73,340.54a.47.47,0,0,1-.17,0,.52.52,0,0,1-.32-.4.94.94,0,0,0-.2-.47.48.48,0,0,1-.59-.35.5.5,0,0,1,.36-.6,4.81,4.81,0,0,0,1.84-1.06,13.33,13.33,0,0,0,1.58-2.12.5.5,0,0,1,.59-.22c.57.19,1.56.82,1.27,1.87-.19.71-1.19,1.39-2.69,2.35-.54.34-1,.67-1.35.91A.47.47,0,0,1,471.73,340.54Zm3.12-4.13a12,12,0,0,1-1.5,1.92l0,.05c.76-.49,1.73-1.16,1.82-1.48S475,336.53,474.85,336.41Z" style="fill: rgb(38, 50, 56); transform-origin: 473.289px 337.921px;" id="el7u05z23rxa" class="animable"></path><path d="M140.84,356.64s2.77,5.29,6.15,7.41,14-2.92,14-2.92a15.55,15.55,0,0,1-7.68-5.4C150.19,351.52,143.83,352.12,140.84,356.64Z" style="fill: #F472B6; transform-origin: 150.915px 358.729px;" id="el1onknw6wtht" class="animable"></path><path d="M149.3,365.06a4.93,4.93,0,0,1-2.58-.58c-3.45-2.17-6.21-7.38-6.32-7.6a.49.49,0,0,1,0-.51,8.76,8.76,0,0,1,7-4,7.55,7.55,0,0,1,6.32,3,15.1,15.1,0,0,0,7.41,5.22.5.5,0,0,1,.37.44.49.49,0,0,1-.28.49C160.86,361.76,153.82,365.06,149.3,365.06Zm-7.87-8.39c.6,1.08,3,5.2,5.82,7,2.3,1.44,8.94-.94,12.42-2.44a16.11,16.11,0,0,1-6.74-5.16,6.52,6.52,0,0,0-5.49-2.64A7.72,7.72,0,0,0,141.43,356.67Z" style="fill: rgb(38, 50, 56); transform-origin: 150.915px 358.715px;" id="el1wj6tczeywu" class="animable"></path><path d="M159,361.71a21.75,21.75,0,0,1-8.74-1.62l-.79-.37c-3.67-1.71-7.14-3.34-8.39-2.64a.5.5,0,1,1-.48-.87c1.69-.94,4.88.54,9.3,2.61l.78.36c4.27,2,10.23,1.46,10.29,1.45a.51.51,0,0,1,.54.45.5.5,0,0,1-.45.55C161,361.64,160.18,361.71,159,361.71Z" style="fill: rgb(38, 50, 56); transform-origin: 150.902px 358.818px;" id="el9qv9iyw12a9" class="animable"></path><path d="M141.11,357.09a3.74,3.74,0,0,0-1.71-.22,9.36,9.36,0,0,0-1.92.55s-.51-.75,0-1.15,2.65,0,3.54,0C141,356.25,140.67,356.91,141.11,357.09Z" style="fill: rgb(38, 50, 56); transform-origin: 139.182px 356.756px;" id="el220588gxu48i" class="animable"></path><path d="M137.48,357.92a.51.51,0,0,1-.42-.22,1.31,1.31,0,0,1,.12-1.82c.46-.36,1.32-.31,2.67-.2a11.53,11.53,0,0,0,1.16.07.55.55,0,0,1,.45.23.5.5,0,0,1,0,.5.86.86,0,0,0-.07.21.5.5,0,0,1-.48.87,3.11,3.11,0,0,0-1.45-.19,9.35,9.35,0,0,0-1.8.51A.46.46,0,0,1,137.48,357.92Zm.85-1.32a1.42,1.42,0,0,0-.55.07.2.2,0,0,0,0,.11Z" style="fill: rgb(38, 50, 56); transform-origin: 139.175px 356.76px;" id="eltwn0h8hkoeo" class="animable"></path><path d="M420.82,63s2.77,5.29,6.15,7.41,14-2.92,14-2.92a15.51,15.51,0,0,1-7.68-5.4C430.17,57.91,423.81,58.51,420.82,63Z" style="fill: #F472B6; transform-origin: 430.895px 65.0999px;" id="elhdx0g36zrs" class="animable"></path><path d="M429.28,71.45a4.91,4.91,0,0,1-2.58-.58c-3.45-2.17-6.21-7.38-6.33-7.61a.5.5,0,0,1,0-.5,8.73,8.73,0,0,1,7-4,7.58,7.58,0,0,1,6.32,3A15.09,15.09,0,0,0,441.12,67a.49.49,0,0,1,.08.93C440.84,68.15,433.8,71.45,429.28,71.45Zm-7.88-8.39c.61,1.08,3,5.2,5.83,7,2.3,1.44,8.94-.94,12.41-2.44a16.09,16.09,0,0,1-6.73-5.16,6.5,6.5,0,0,0-5.49-2.64A7.75,7.75,0,0,0,421.4,63.06Z" style="fill: rgb(38, 50, 56); transform-origin: 430.902px 65.1057px;" id="elsel9fhhzsso" class="animable"></path><path d="M439,68.1a21.78,21.78,0,0,1-8.74-1.62l-.77-.36c-3.68-1.72-7.15-3.34-8.4-2.65a.5.5,0,0,1-.68-.2.49.49,0,0,1,.19-.67c1.69-1,4.89.55,9.31,2.61l.77.36c4.27,2,10.23,1.46,10.29,1.45a.5.5,0,0,1,.55.45A.51.51,0,0,1,441,68C441,68,440.16,68.1,439,68.1Z" style="fill: rgb(38, 50, 56); transform-origin: 430.934px 65.1969px;" id="elxn6xwonc6vr" class="animable"></path><path d="M421.08,63.48a3.69,3.69,0,0,0-1.7-.22,9.55,9.55,0,0,0-1.93.55s-.51-.75,0-1.15,2.66,0,3.55,0C421,62.64,420.65,63.3,421.08,63.48Z" style="fill: rgb(38, 50, 56); transform-origin: 419.152px 63.1461px;" id="el2t9s2kf1gsl" class="animable"></path><path d="M417.45,64.31a.49.49,0,0,1-.41-.22,1.3,1.3,0,0,1,.12-1.82c.46-.36,1.32-.31,2.67-.2a11.37,11.37,0,0,0,1.16.07.46.46,0,0,1,.44.23.5.5,0,0,1,0,.5.86.86,0,0,0-.07.21.5.5,0,0,1-.49.87,3.06,3.06,0,0,0-1.44-.19,9.56,9.56,0,0,0-1.81.51A.41.41,0,0,1,417.45,64.31Zm.86-1.32a1.19,1.19,0,0,0-.55.08.09.09,0,0,0,0,.1Z" style="fill: rgb(38, 50, 56); transform-origin: 419.158px 63.1495px;" id="elrv76gaudt3" class="animable"></path><path d="M45.22,203s.7-5.93-.89-9.59-13.22-5.51-13.22-5.51a15.53,15.53,0,0,1,3.28,8.8C34.61,202,40.19,205.05,45.22,203Z" style="fill: #F472B6; transform-origin: 38.2417px 195.772px;" id="el8cha7anmhp" class="animable"></path><path d="M42,204.14a8.56,8.56,0,0,1-4.61-1.33,7.55,7.55,0,0,1-3.5-6.08,15.12,15.12,0,0,0-3.16-8.49.5.5,0,0,1-.06-.57.47.47,0,0,1,.51-.25c.49.08,11.93,1.94,13.61,5.8s1,9.6.92,9.85a.5.5,0,0,1-.3.4A9.08,9.08,0,0,1,42,204.14Zm-9.75-15.52a16,16,0,0,1,2.64,8.07,6.56,6.56,0,0,0,3,5.28,7.68,7.68,0,0,0,6.82.68c.11-1.23.44-6-.88-9C42.79,191.14,36,189.34,32.25,188.62Zm13,14.39h0Z" style="fill: rgb(38, 50, 56); transform-origin: 38.2603px 195.776px;" id="el6yjqlci3frm" class="animable"></path><path d="M45.22,203.51h0c-1.93-.18-3.72-3.21-6.2-7.41l-.44-.74c-2.4-4.06-7.61-7-7.67-7a.49.49,0,0,1-.19-.68.51.51,0,0,1,.68-.2c.22.13,5.5,3.09,8,7.38l.44.74c2.07,3.49,4,6.79,5.43,6.92a.51.51,0,0,1,.46.55A.51.51,0,0,1,45.22,203.51Z" style="fill: rgb(38, 50, 56); transform-origin: 38.192px 195.466px;" id="el1l7f7yfz16h" class="animable"></path><path d="M45.25,202.49a3.77,3.77,0,0,0,1.28,1.14,9.67,9.67,0,0,0,1.9.64s0,.9-.65.94-2.19-1.51-2.94-2C44.84,203.23,45.51,202.89,45.25,202.49Z" style="fill: rgb(38, 50, 56); transform-origin: 46.635px 203.85px;" id="el73vw6kugoj6" class="animable"></path><path d="M47.76,205.71c-.58,0-1.25-.52-2.27-1.35-.36-.29-.69-.56-.92-.71a.48.48,0,0,1-.23-.44.5.5,0,0,1,.27-.43.74.74,0,0,0,.17-.12.51.51,0,0,1,.2-.59.5.5,0,0,1,.69.14,3.13,3.13,0,0,0,1.09,1,8.78,8.78,0,0,0,1.78.6.49.49,0,0,1,.39.49,1.31,1.31,0,0,1-1.13,1.44Zm-.49-1.25a1.48,1.48,0,0,0,.49.25s.06,0,.09-.07Zm-2.44-1.7h0Z" style="fill: rgb(38, 50, 56); transform-origin: 46.6384px 203.864px;" id="elozcg34v4gh" class="animable"></path></g><g id="freepik--Plants--inject-143" class="animable animator-active" style="transform-origin: 294.588px 403.765px;"><path d="M394.09,385.31c1.6.7,5.5.61,5.51.61s-.84-2.56-.92-2.72c-.85-1.79-3.56-4.75-5.77-4.45a2.63,2.63,0,0,0-2.11,3.3C391.16,383.58,392.73,384.71,394.09,385.31Z" style="fill: rgb(38, 50, 56); transform-origin: 395.152px 382.326px;" id="el07tujnrz2xi4" class="animable"></path><path d="M395.44,396.63c1.66.24,5.14-.77,5.42-.86a44.85,44.85,0,0,0,2.12,5.86c.47,1.11,1,2.21,1.53,3.31-.32-.46-.61-.88-.66-.93-1.3-1.51-4.69-3.65-6.74-2.78a2.64,2.64,0,0,0-1.17,3.75c.76,1.37,2.57,2,4,2.27s4.48-.59,5.27-.81l.62,1.26c1,2,2,4,3,6,.33.7.63,1.4.94,2.11l-.57-.81c-1.3-1.5-4.7-3.64-6.75-2.77a2.64,2.64,0,0,0-1.17,3.74c.76,1.38,2.57,2.06,4,2.27a16.73,16.73,0,0,0,5.13-.77c.29.73.58,1.46.82,2.18.16.5.35,1,.48,1.47s.27,1,.41,1.48c.23.95.47,1.93.67,2.87.14.64.27,1.26.39,1.89-.32-.7-1-2.07-1-2.18-1.06-1.68-4.09-4.31-6.25-3.76a2.64,2.64,0,0,0-1.72,3.52c.54,1.48,2.23,2.43,3.65,2.86s5,0,5.45,0c.21,1,.4,2,.57,3,.37,2.11.65,4,.86,5.59h1.46c-.25-1.65-.58-3.62-1-5.83-.21-1.05-.45-2.17-.71-3.32a28.32,28.32,0,0,0,3-1.43,19.25,19.25,0,0,0,4.44,2.86c-.4,1-.79,1.93-1.18,2.81a17.86,17.86,0,0,1-1.07,2l1.54-.24c.58-1.29.08.34.74-1.29.41-1,.83-2.06,1.24-3.16.42.09,3.85.78,5.45.42,1.44-.32,3.2-1.14,3.85-2.57a2.65,2.65,0,0,0-1.46-3.65c-2.11-.7-5.33,1.69-6.51,3.29-.07.1-.71,1.2-1.1,1.91.16-.45.33-.89.5-1.35.34-.92.65-1.84,1-2.84.15-.49.29-1,.44-1.47s.26-1,.4-1.54c.29-1.21.52-2.44.72-3.69.81.29,3.68,1.29,5.17,1.18s3.34-.64,4.2-2a2.63,2.63,0,0,0-.89-3.82c-2-1-5.53.86-6.93,2.26-.09.09-1,1.21-1.47,1.83.12-.75.24-1.5.33-2.26.28-2.21.49-4.45.7-6.69.07-.68.15-1.37.22-2.05.28.11,3.67,1.37,5.34,1.25,1.48-.1,3.34-.65,4.19-2a2.64,2.64,0,0,0-.88-3.82c-2-1-5.53.86-6.94,2.26-.1.11-1.39,1.72-1.7,2.15.16-1.51.33-3,.56-4.47a47.08,47.08,0,0,1,1.28-5.88c.14.05,3.67,1.38,5.37,1.26,1.48-.1,3.34-.65,4.2-2a2.63,2.63,0,0,0-.89-3.82c-2-1-5.52.86-6.93,2.26-.11.11-1.5,1.85-1.73,2.18,0-.11.06-.23.09-.34a34.59,34.59,0,0,1,2.33-5.57c.51-1,1.05-1.91,1.59-2.79.63.32,3.54,1.73,5.09,1.79s3.39-.28,4.38-1.49a2.64,2.64,0,0,0-.46-3.9c-1.85-1.23-5.58.25-7.14,1.49-.08.07-.87.85-1.43,1.43.25-.4.51-.81.76-1.18.93-1.41,1.87-2.63,2.71-3.71.48-.61.93-1.15,1.35-1.66.79,0,3.93-.11,5.31-.75s2.88-1.81,3.21-3.35a2.63,2.63,0,0,0-2.21-3.24c-2.21-.24-4.84,2.79-5.65,4.61-.07.16-.88,2.74-.84,2.74h.05c-.42.48-.86,1-1.34,1.57-.86,1.06-1.83,2.27-2.8,3.66a47.36,47.36,0,0,0-2.9,4.62,35.12,35.12,0,0,0-2.48,5.58l0,.08c0-.66,0-2.48,0-2.62-.26-2-1.91-5.63-4.1-6a2.64,2.64,0,0,0-3,2.48c-.13,1.57,1,3.14,2.12,4.12s4.71,2.2,5,2.29a46.32,46.32,0,0,0-1.47,6c-.21,1.19-.39,2.4-.55,3.61,0-.56,0-1.07,0-1.14-.25-2-1.91-5.63-4.1-6a2.63,2.63,0,0,0-3,2.48c-.13,1.56,1,3.13,2.11,4.12s4.06,2,4.84,2.23c-.06.47-.12.93-.17,1.4-.27,2.23-.53,4.46-.85,6.64-.11.77-.25,1.52-.38,2.28,0-.51,0-.93,0-1-.25-2-1.91-5.63-4.1-6a2.63,2.63,0,0,0-3,2.48c-.13,1.57,1,3.14,2.11,4.12a16.8,16.8,0,0,0,4.7,2.19c-.16.77-.32,1.54-.51,2.27-.15.5-.25,1-.42,1.49s-.32,1-.47,1.46c-.34.92-.68,1.87-1,2.76-.24.62-.48,1.21-.72,1.8.12-.77.33-2.27.33-2.39a10.28,10.28,0,0,0-1.37-5,3.77,3.77,0,0,0,0-.58,2.64,2.64,0,0,0-3.22-2.24c-2.15.58-3.52,4.35-3.62,6.34,0,.11.07,1.39.13,2.2-.1-.47-.2-.93-.32-1.41-.23-.95-.48-1.89-.75-2.91-.15-.48-.29-1-.44-1.47s-.35-1-.52-1.5c-.43-1.17-.92-2.32-1.43-3.48.83-.2,3.78-.95,5-1.86s2.43-2.38,2.41-4a2.64,2.64,0,0,0-2.84-2.7c-2.21.24-4.13,3.77-4.54,5.71,0,.13-.15,1.55-.21,2.34-.32-.69-.63-1.38-1-2.07-1-2-2.05-4-3.1-6-.33-.61-.64-1.22-1-1.82.3-.07,3.82-.89,5.15-1.91,1.17-.9,2.42-2.38,2.41-3.95a2.64,2.64,0,0,0-2.84-2.7c-2.22.24-4.14,3.77-4.54,5.72,0,.14-.21,2.2-.24,2.72-.69-1.34-1.38-2.68-2-4a46.31,46.31,0,0,1-2.18-5.61c.14,0,3.82-.87,5.18-1.91,1.18-.91,2.43-2.39,2.41-4a2.62,2.62,0,0,0-2.84-2.69c-2.21.24-4.13,3.76-4.54,5.71,0,.15-.23,2.36-.23,2.77a3.4,3.4,0,0,1-.12-.34,34.2,34.2,0,0,1-1.13-5.92c-.12-1.11-.18-2.17-.21-3.21.7-.08,3.9-.51,5.23-1.31s2.67-2.1,2.83-3.66a2.63,2.63,0,0,0-2.53-3c-2.22,0-4.52,3.29-5.13,5.18,0,.11-.26,1.19-.41,2,0-.47,0-.95,0-1.4,0-1.68.11-3.22.21-4.59.07-.77.14-1.47.22-2.13.65-.44,3.22-2.26,4-3.56s1.41-3.09.83-4.56a2.64,2.64,0,0,0-3.63-1.49c-2,1-2.49,5-2.17,7,0,.17.78,2.77.81,2.74l0,0c-.09.62-.17,1.3-.25,2-.14,1.36-.28,2.91-.32,4.6a48.54,48.54,0,0,0,.13,5.45,35.2,35.2,0,0,0,1,6,.25.25,0,0,0,0,.07c-.35-.55-1.38-2.06-1.48-2.17-1.3-1.5-4.69-3.64-6.74-2.77a2.63,2.63,0,0,0-1.17,3.74C392.16,395.73,394,396.41,395.44,396.63Z" style="fill: rgb(38, 50, 56); transform-origin: 419.378px 401.809px;" id="elkzbn3u7c5c" class="animable"></path><path d="M433.61,386.17s.71-2.6.74-2.77c.27-2-.36-5.93-2.36-6.9a2.64,2.64,0,0,0-3.59,1.59c-.53,1.47.15,3.28,1,4.53C430.3,384.08,433.61,386.17,433.61,386.17Z" style="fill: rgb(38, 50, 56); transform-origin: 431.311px 381.219px;" id="elepb43p0a16s" class="animable"></path><path d="M367.16,406.91a12.14,12.14,0,0,0,3.59.4s-.55-1.67-.6-1.77c-.56-1.17-2.32-3.1-3.76-2.9a1.71,1.71,0,0,0-1.38,2.15A3.55,3.55,0,0,0,367.16,406.91Z" style="fill: rgb(38, 50, 56); transform-origin: 367.848px 404.972px;" id="elcrg0iiopvlq" class="animable"></path><path d="M368,414.29a12,12,0,0,0,3.53-.55,30.1,30.1,0,0,0,1.38,3.81c.31.73.65,1.45,1,2.17-.21-.31-.4-.58-.43-.61-.84-1-3.06-2.38-4.4-1.81a1.72,1.72,0,0,0-.76,2.44,3.61,3.61,0,0,0,2.64,1.48,11.23,11.23,0,0,0,3.43-.53l.41.82c.66,1.32,1.32,2.62,1.93,3.92.22.46.41.92.61,1.38-.19-.27-.34-.5-.37-.53-.85-1-3.06-2.38-4.4-1.81a1.72,1.72,0,0,0-.76,2.44,3.57,3.57,0,0,0,2.63,1.48,10.88,10.88,0,0,0,3.35-.5c.18.48.37.95.53,1.42s.23.63.31,1l.27,1c.15.62.31,1.26.44,1.86.09.43.17.83.25,1.24-.2-.46-.63-1.35-.68-1.42-.69-1.1-2.66-2.81-4.07-2.45a1.71,1.71,0,0,0-1.12,2.29,3.59,3.59,0,0,0,2.37,1.87,12.12,12.12,0,0,0,3.56,0c.14.67.26,1.33.37,1.95.24,1.37.43,2.6.56,3.65h1c-.17-1.08-.39-2.37-.67-3.81-.14-.68-.3-1.41-.46-2.16a20.29,20.29,0,0,0,2-.93,12.74,12.74,0,0,0,2.89,1.86c-.26.64-.51,1.26-.77,1.84a10.9,10.9,0,0,1-.69,1.33l1-.16c.38-.84.05.22.49-.84.26-.65.53-1.34.8-2.06a11.89,11.89,0,0,0,3.55.28,3.6,3.6,0,0,0,2.51-1.68,1.71,1.71,0,0,0-.95-2.38c-1.37-.46-3.47,1.1-4.24,2.15,0,.06-.46.78-.72,1.24l.33-.88c.22-.6.42-1.2.64-1.85.09-.32.19-.64.29-1s.17-.67.25-1c.19-.78.34-1.59.48-2.4a11.18,11.18,0,0,0,3.36.77,3.59,3.59,0,0,0,2.74-1.28,1.72,1.72,0,0,0-.58-2.49c-1.29-.67-3.6.56-4.52,1.48-.06.05-.64.78-1,1.19.07-.49.15-1,.21-1.48.18-1.44.32-2.9.46-4.36,0-.44.09-.89.14-1.33a11.76,11.76,0,0,0,3.48.81,3.59,3.59,0,0,0,2.74-1.28,1.72,1.72,0,0,0-.58-2.49c-1.29-.67-3.6.56-4.52,1.48-.07.06-.91,1.12-1.11,1.39.1-1,.21-1.95.36-2.91a30.54,30.54,0,0,1,.84-3.83,12.23,12.23,0,0,0,3.5.82A3.59,3.59,0,0,0,396.6,413a1.72,1.72,0,0,0-.58-2.49c-1.29-.67-3.6.56-4.52,1.47-.07.08-1,1.21-1.13,1.43l.06-.23a22.84,22.84,0,0,1,1.52-3.63c.33-.64.68-1.24,1-1.82a11.34,11.34,0,0,0,3.31,1.17,3.59,3.59,0,0,0,2.86-1,1.72,1.72,0,0,0-.3-2.54c-1.21-.8-3.64.16-4.65,1-.06,0-.57.55-.94.93.17-.26.33-.53.49-.77.61-.92,1.22-1.72,1.77-2.42.32-.4.61-.75.89-1.08a11.55,11.55,0,0,0,3.46-.49,3.6,3.6,0,0,0,2.09-2.18,1.72,1.72,0,0,0-1.44-2.12c-1.44-.15-3.16,1.82-3.68,3-.05.1-.58,1.78-.55,1.78h0l-.87,1c-.57.69-1.2,1.48-1.83,2.39a30.71,30.71,0,0,0-1.89,3,23.29,23.29,0,0,0-1.62,3.64.09.09,0,0,1,0,.05c0-.43,0-1.62,0-1.71-.17-1.28-1.25-3.67-2.67-3.93a1.71,1.71,0,0,0-2,1.61,3.56,3.56,0,0,0,1.37,2.69,12.14,12.14,0,0,0,3.26,1.49,30.63,30.63,0,0,0-1,3.94c-.13.78-.25,1.57-.36,2.36,0-.37,0-.7,0-.75-.17-1.28-1.25-3.67-2.68-3.93a1.72,1.72,0,0,0-2,1.61,3.61,3.61,0,0,0,1.38,2.69,11.15,11.15,0,0,0,3.16,1.46l-.12.91c-.17,1.45-.34,2.91-.55,4.33-.07.5-.16,1-.25,1.48,0-.32,0-.6,0-.64-.16-1.29-1.24-3.67-2.67-3.94a1.72,1.72,0,0,0-2,1.62,3.62,3.62,0,0,0,1.38,2.69,10.85,10.85,0,0,0,3.07,1.42c-.11.5-.21,1-.34,1.49-.09.32-.16.64-.27,1s-.21.64-.31,1c-.22.6-.44,1.22-.67,1.8-.15.4-.31.78-.46,1.17.08-.5.21-1.48.21-1.56a6.62,6.62,0,0,0-.89-3.24,2.34,2.34,0,0,0,0-.38,1.72,1.72,0,0,0-2.1-1.46c-1.4.37-2.29,2.83-2.36,4.13,0,.07.05.91.09,1.43-.07-.3-.13-.6-.21-.91-.15-.62-.31-1.24-.49-1.9-.09-.32-.19-.64-.29-1s-.22-.65-.34-1c-.28-.76-.59-1.51-.93-2.27a11.48,11.48,0,0,0,3.24-1.21A3.6,3.6,0,0,0,382.9,423a1.72,1.72,0,0,0-1.85-1.76c-1.45.16-2.7,2.46-3,3.73,0,.08-.1,1-.14,1.52-.21-.45-.41-.9-.63-1.35-.65-1.3-1.34-2.59-2-3.89l-.62-1.19a11.88,11.88,0,0,0,3.35-1.24,3.58,3.58,0,0,0,1.58-2.58,1.73,1.73,0,0,0-1.86-1.76c-1.44.16-2.69,2.46-2.95,3.73,0,.09-.14,1.43-.16,1.78-.45-.88-.9-1.75-1.3-2.63a30.64,30.64,0,0,1-1.42-3.66,12.22,12.22,0,0,0,3.38-1.25,3.56,3.56,0,0,0,1.57-2.58,1.7,1.7,0,0,0-1.85-1.75c-1.45.15-2.7,2.45-3,3.72,0,.1-.15,1.54-.15,1.81,0-.08-.06-.15-.08-.22a21.19,21.19,0,0,1-.73-3.87c-.08-.72-.12-1.41-.14-2.09a11.54,11.54,0,0,0,3.41-.85,3.58,3.58,0,0,0,1.84-2.39,1.71,1.71,0,0,0-1.65-1.95c-1.45,0-2.94,2.14-3.34,3.37,0,.07-.17.78-.27,1.29,0-.3,0-.62,0-.91,0-1.1.07-2.1.14-3,0-.51.09-1,.14-1.39a11.3,11.3,0,0,0,2.61-2.32,3.55,3.55,0,0,0,.54-3,1.71,1.71,0,0,0-2.36-1c-1.29.66-1.63,3.26-1.42,4.54,0,.11.51,1.8.53,1.79l0,0c-.06.41-.12.85-.17,1.33-.09.89-.18,1.9-.2,3a31,31,0,0,0,.08,3.56,22.61,22.61,0,0,0,.66,3.92.43.43,0,0,0,0,0c-.22-.36-.9-1.34-1-1.41-.84-1-3.06-2.38-4.39-1.81a1.72,1.72,0,0,0-.77,2.44A3.61,3.61,0,0,0,368,414.29Z" style="fill: rgb(38, 50, 56); transform-origin: 383.511px 417.726px;" id="elwuweumo9jzd" class="animable"></path><path d="M392.93,407.47s.46-1.69.48-1.8c.18-1.28-.23-3.87-1.54-4.5a1.72,1.72,0,0,0-2.34,1,3.61,3.61,0,0,0,.62,3A12.15,12.15,0,0,0,392.93,407.47Z" style="fill: rgb(38, 50, 56); transform-origin: 391.441px 404.242px;" id="elelh0nx95w85" class="animable"></path><path d="M323,416.09a8.9,8.9,0,0,0,2.6.29s-.39-1.22-.43-1.29c-.4-.85-1.69-2.25-2.73-2.11a1.24,1.24,0,0,0-1,1.56A2.6,2.6,0,0,0,323,416.09Z" style="fill: rgb(38, 50, 56); transform-origin: 323.497px 414.678px;" id="el4htluqzgvw4" class="animable"></path><path d="M323.59,421.45a8.71,8.71,0,0,0,2.57-.41,22.42,22.42,0,0,0,1,2.77c.23.53.48,1.05.73,1.57l-.31-.44c-.62-.71-2.23-1.72-3.2-1.31a1.25,1.25,0,0,0-.55,1.77,2.62,2.62,0,0,0,1.91,1.08,8.19,8.19,0,0,0,2.5-.39l.3.6c.47.95.95,1.9,1.4,2.85.15.33.3.66.44,1-.13-.2-.25-.36-.27-.39-.61-.71-2.22-1.72-3.19-1.31a1.25,1.25,0,0,0-.56,1.77,2.62,2.62,0,0,0,1.92,1.08,7.64,7.64,0,0,0,2.42-.37c.14.35.28.7.39,1s.17.45.23.69.13.47.19.7c.11.45.23.92.32,1.36s.13.6.19.9c-.15-.34-.47-1-.5-1-.5-.8-1.93-2.05-3-1.79a1.25,1.25,0,0,0-.81,1.67,2.6,2.6,0,0,0,1.73,1.36,8.64,8.64,0,0,0,2.58,0c.1.49.19,1,.27,1.42.17,1,.31,1.89.41,2.64h.69c-.12-.78-.28-1.71-.49-2.76-.1-.5-.21-1-.33-1.57a13.55,13.55,0,0,0,1.44-.68,9.08,9.08,0,0,0,2.1,1.36l-.56,1.33a8,8,0,0,1-.51,1l.73-.11c.28-.62,0,.16.36-.62.19-.47.39-1,.58-1.49a8.67,8.67,0,0,0,2.58.2,2.59,2.59,0,0,0,1.82-1.22,1.25,1.25,0,0,0-.68-1.73c-1-.33-2.53.8-3.09,1.56,0,0-.33.57-.52.9l.24-.64c.16-.43.3-.87.46-1.34l.21-.7c.08-.23.13-.48.19-.73.14-.57.24-1.15.34-1.75a8.11,8.11,0,0,0,2.45.57,2.64,2.64,0,0,0,2-.93,1.26,1.26,0,0,0-.42-1.81c-.94-.49-2.62.41-3.29,1.07,0,0-.46.57-.69.87.05-.36.11-.71.16-1.08.13-1,.22-2.1.33-3.16,0-.33.06-.65.1-1a8.86,8.86,0,0,0,2.53.59,2.6,2.6,0,0,0,2-.93,1.25,1.25,0,0,0-.41-1.81c-.94-.48-2.62.41-3.29,1.07-.05,0-.66.82-.81,1,.08-.72.16-1.42.27-2.12a22.07,22.07,0,0,1,.61-2.78,8.82,8.82,0,0,0,2.54.59,2.6,2.6,0,0,0,2-.93,1.25,1.25,0,0,0-.42-1.81c-.94-.48-2.62.41-3.28,1.08-.06.05-.71.87-.82,1a.94.94,0,0,1,0-.16A16.59,16.59,0,0,1,341,418c.24-.47.5-.9.76-1.32a8.37,8.37,0,0,0,2.4.85,2.62,2.62,0,0,0,2.08-.71A1.24,1.24,0,0,0,346,415c-.87-.59-2.64.11-3.38.7l-.68.67c.12-.18.24-.38.36-.55.44-.67.89-1.25,1.28-1.76.23-.29.45-.55.65-.78a8.64,8.64,0,0,0,2.51-.36,2.6,2.6,0,0,0,1.52-1.59,1.24,1.24,0,0,0-1-1.53c-1.05-.12-2.3,1.32-2.68,2.18,0,.08-.42,1.3-.4,1.3h0l-.63.74c-.41.5-.87,1.07-1.32,1.73a23,23,0,0,0-1.38,2.19,15.86,15.86,0,0,0-1.17,2.64v0c0-.31,0-1.18,0-1.24-.12-.93-.9-2.67-1.94-2.86a1.25,1.25,0,0,0-1.44,1.17,2.63,2.63,0,0,0,1,2,8.63,8.63,0,0,0,2.37,1.08,21.34,21.34,0,0,0-.7,2.86c-.1.57-.18,1.14-.26,1.71,0-.27,0-.51,0-.54-.12-.93-.91-2.67-1.94-2.86a1.25,1.25,0,0,0-1.44,1.18,2.62,2.62,0,0,0,1,1.95,8.46,8.46,0,0,0,2.29,1.06c0,.22-.05.44-.08.66-.13,1.05-.25,2.11-.4,3.14-.05.37-.12.72-.18,1.08,0-.24,0-.44,0-.47-.13-.93-.91-2.66-1.95-2.85a1.24,1.24,0,0,0-1.43,1.17,2.59,2.59,0,0,0,1,1.95,8.44,8.44,0,0,0,2.22,1c-.07.36-.15.72-.24,1.07s-.12.47-.2.71-.15.46-.22.69c-.16.43-.32.89-.49,1.31l-.33.85c0-.36.15-1.07.15-1.14a4.79,4.79,0,0,0-.65-2.35,1.32,1.32,0,0,0,0-.28,1.25,1.25,0,0,0-1.52-1.06c-1,.28-1.67,2.06-1.71,3,0,.06,0,.66.06,1-.05-.23-.1-.44-.16-.67-.1-.45-.22-.9-.35-1.38l-.21-.69c-.07-.24-.16-.48-.25-.72-.2-.55-.43-1.1-.67-1.64a8.41,8.41,0,0,0,2.35-.88,2.62,2.62,0,0,0,1.14-1.88,1.23,1.23,0,0,0-1.35-1.27c-1.05.11-2,1.78-2.14,2.7,0,.06-.08.74-.11,1.11-.15-.33-.29-.66-.46-1-.46-1-1-1.89-1.47-2.83l-.45-.86a9,9,0,0,0,2.44-.9,2.59,2.59,0,0,0,1.14-1.88,1.23,1.23,0,0,0-1.34-1.27c-1,.11-2,1.78-2.15,2.7,0,.07-.1,1.05-.11,1.29-.33-.63-.66-1.27-.95-1.91a20.24,20.24,0,0,1-1-2.66,8.63,8.63,0,0,0,2.45-.9,2.59,2.59,0,0,0,1.14-1.87,1.24,1.24,0,0,0-1.34-1.28c-1.05.11-2,1.78-2.15,2.71,0,.07-.11,1.12-.11,1.31l-.06-.16a16.29,16.29,0,0,1-.53-2.81c-.06-.52-.09-1-.1-1.51a8.35,8.35,0,0,0,2.47-.63,2.59,2.59,0,0,0,1.35-1.73,1.25,1.25,0,0,0-1.2-1.42c-1.06,0-2.14,1.56-2.43,2.45,0,.05-.13.56-.2.94,0-.22,0-.45,0-.66,0-.8.05-1.53.1-2.18,0-.36.07-.7.11-1a8.48,8.48,0,0,0,1.9-1.69,2.64,2.64,0,0,0,.39-2.16,1.26,1.26,0,0,0-1.72-.71c-.93.49-1.18,2.37-1,3.3,0,.08.37,1.31.39,1.3h0c-.05.3-.09.62-.12,1-.07.64-.13,1.37-.15,2.17a23,23,0,0,0,.06,2.59,15.58,15.58,0,0,0,.48,2.85v0c-.17-.27-.66-1-.7-1-.62-.71-2.22-1.72-3.19-1.31a1.25,1.25,0,0,0-.56,1.77A2.62,2.62,0,0,0,323.59,421.45Z" style="fill: rgb(38, 50, 56); transform-origin: 334.978px 423.89px;" id="el10084pfhwf1q" class="animable"></path><path d="M341.67,416.49s.34-1.23.35-1.31c.13-.93-.17-2.81-1.12-3.27a1.24,1.24,0,0,0-1.69.76,2.54,2.54,0,0,0,.45,2.14A8.78,8.78,0,0,0,341.67,416.49Z" style="fill: rgb(38, 50, 56); transform-origin: 340.594px 414.146px;" id="elyp67qje2to" class="animable"></path><path d="M143.11,384.56a8.22,8.22,0,0,0,2.43.27s-.37-1.13-.41-1.2c-.37-.79-1.57-2.09-2.54-2a1.16,1.16,0,0,0-.93,1.45A2.4,2.4,0,0,0,143.11,384.56Z" style="fill: rgb(38, 50, 56); transform-origin: 143.58px 383.231px;" id="elnjyok5kpheh" class="animable"></path><path d="M160.52,384.94s.31-1.15.32-1.22c.13-.87-.15-2.61-1-3a1.16,1.16,0,0,0-1.58.7,2.4,2.4,0,0,0,.42,2A8.26,8.26,0,0,0,160.52,384.94Z" style="fill: rgb(38, 50, 56); transform-origin: 159.533px 382.779px;" id="elaq6gb94chf6" class="animable"></path><path d="M165.66,378.7c-1-.1-2.13,1.23-2.49,2,0,.07-.39,1.21-.37,1.21h0c-.18.21-.38.43-.59.69-.38.46-.81,1-1.23,1.61a18.39,18.39,0,0,0-1.28,2,14.18,14.18,0,0,0-1.09,2.46v0c0-.29,0-1.09,0-1.16-.11-.86-.84-2.48-1.8-2.66a1.17,1.17,0,0,0-1.34,1.1,2.38,2.38,0,0,0,.93,1.81,8.28,8.28,0,0,0,2.2,1,22,22,0,0,0-.65,2.66q-.13.8-.24,1.59c0-.25,0-.47,0-.5-.11-.87-.84-2.48-1.81-2.66a1.17,1.17,0,0,0-1.34,1.09,2.46,2.46,0,0,0,.94,1.82,7.59,7.59,0,0,0,2.13,1c0,.21-.05.41-.08.62-.12,1-.23,2-.37,2.93,0,.33-.11.67-.17,1,0-.22,0-.41,0-.44-.11-.87-.84-2.48-1.81-2.66a1.17,1.17,0,0,0-1.34,1.1,2.44,2.44,0,0,0,.94,1.81,7.66,7.66,0,0,0,2.07,1c-.07.33-.15.67-.23,1s-.11.43-.18.65l-.21.65c-.15.4-.3.82-.45,1.21s-.21.53-.32.79c.06-.33.15-1,.15-1.05a4.44,4.44,0,0,0-.61-2.19,1.13,1.13,0,0,0,0-.26,1.16,1.16,0,0,0-1.42-1c-.95.25-1.55,1.91-1.59,2.79,0,0,0,.61.05,1,0-.21-.09-.41-.14-.62-.1-.42-.21-.84-.33-1.29-.06-.21-.13-.43-.2-.64s-.15-.44-.22-.67c-.19-.51-.41-1-.63-1.53a7.72,7.72,0,0,0,2.18-.82,2.45,2.45,0,0,0,1.07-1.74,1.17,1.17,0,0,0-1.26-1.19c-1,.11-1.82,1.66-2,2.52,0,.05-.06.68-.09,1-.14-.31-.28-.61-.43-.91-.43-.88-.9-1.76-1.36-2.63q-.23-.4-.42-.81a8.2,8.2,0,0,0,2.26-.83,2.45,2.45,0,0,0,1.07-1.75,1.18,1.18,0,0,0-1.26-1.19c-1,.11-1.82,1.66-2,2.52,0,.07-.09,1-.1,1.2-.31-.59-.61-1.18-.88-1.77a21.08,21.08,0,0,1-1-2.48,8.05,8.05,0,0,0,2.28-.84,2.45,2.45,0,0,0,1.07-1.74,1.17,1.17,0,0,0-1.26-1.19c-1,.11-1.82,1.66-2,2.52,0,.07-.1,1-.1,1.22,0-.05,0-.1-.05-.15a15.76,15.76,0,0,1-.5-2.61c0-.49-.08-.95-.09-1.41a8,8,0,0,0,2.3-.58,2.44,2.44,0,0,0,1.25-1.61,1.16,1.16,0,0,0-1.11-1.32c-1,0-2,1.45-2.27,2.28,0,0-.11.52-.18.87,0-.21,0-.42,0-.62,0-.74,0-1.42.1-2,0-.34.06-.65.1-.94a7.72,7.72,0,0,0,1.76-1.56,2.45,2.45,0,0,0,.37-2,1.17,1.17,0,0,0-1.6-.66c-.87.45-1.1,2.21-1,3.07,0,.07.35,1.22.36,1.21h0c0,.27-.08.57-.11.9-.06.6-.13,1.28-.14,2a22.08,22.08,0,0,0,0,2.41,15.15,15.15,0,0,0,.45,2.65v0c-.15-.24-.61-.9-.65-.95-.57-.66-2.07-1.61-3-1.22a1.17,1.17,0,0,0-.52,1.65,2.49,2.49,0,0,0,1.78,1,8.12,8.12,0,0,0,2.39-.38,20.52,20.52,0,0,0,.93,2.58c.21.49.44,1,.68,1.46-.14-.21-.27-.39-.29-.41-.57-.66-2.07-1.61-3-1.22a1.17,1.17,0,0,0-.52,1.65,2.49,2.49,0,0,0,1.78,1,7.74,7.74,0,0,0,2.32-.36l.28.56c.44.88.89,1.76,1.3,2.64.15.31.28.62.42.93l-.25-.35c-.58-.67-2.07-1.61-3-1.23a1.16,1.16,0,0,0-.51,1.65,2.39,2.39,0,0,0,1.78,1,7.07,7.07,0,0,0,2.26-.34c.12.33.25.65.36,1s.15.42.21.64l.18.65c.1.42.21.86.29,1.27s.12.56.18.83c-.14-.31-.43-.91-.46-1-.47-.74-1.8-1.9-2.75-1.66a1.16,1.16,0,0,0-.76,1.56,2.46,2.46,0,0,0,1.6,1.26,8.19,8.19,0,0,0,2.41,0c.09.45.17.9.25,1.32s.1.59.14.88l.58-.18c-.05-.27-.09-.52-.15-.81-.09-.46-.2-.95-.31-1.46.11,0,.76-.31,1.34-.63a8.68,8.68,0,0,0,1.95,1.26c-.12.3-.24.58-.36.86l.7-.22c.08-.19.15-.37.22-.57.1,0,.53.11,1,.17l1.77-.55.17.39a2.07,2.07,0,0,0,1.13-1,1.16,1.16,0,0,0-.64-1.6c-.93-.31-2.35.74-2.87,1.45,0,0-.31.53-.49.84.08-.2.15-.39.22-.6.15-.4.29-.81.44-1.25l.19-.64c.07-.22.12-.46.18-.68.12-.54.22-1.08.32-1.63a7.45,7.45,0,0,0,2.27.52,2.41,2.41,0,0,0,1.85-.86,1.16,1.16,0,0,0-.39-1.68c-.87-.45-2.44.37-3.06,1,0,0-.43.53-.64.81l.15-1c.12-1,.21-2,.3-2.95,0-.3.07-.6.1-.9a8,8,0,0,0,2.35.55,2.41,2.41,0,0,0,1.85-.86,1.16,1.16,0,0,0-.39-1.68c-.87-.45-2.44.37-3.06,1,0,0-.61.76-.75.95.07-.67.15-1.32.25-2a19.16,19.16,0,0,1,.57-2.59,8,8,0,0,0,2.36.55,2.41,2.41,0,0,0,1.85-.86,1.16,1.16,0,0,0-.39-1.68c-.87-.45-2.43.38-3.05,1-.05.05-.66.82-.77,1a.83.83,0,0,0,0-.15,14.65,14.65,0,0,1,1-2.45c.22-.44.46-.84.7-1.23a7.9,7.9,0,0,0,2.24.79,2.4,2.4,0,0,0,1.93-.66,1.15,1.15,0,0,0-.2-1.71c-.82-.55-2.46.11-3.15.65l-.63.63c.12-.17.23-.36.34-.52.41-.62.82-1.16,1.19-1.63.21-.27.41-.51.6-.73a7.79,7.79,0,0,0,2.34-.34,2.39,2.39,0,0,0,1.41-1.47A1.17,1.17,0,0,0,165.66,378.7Z" style="fill: rgb(38, 50, 56); transform-origin: 153.996px 391.009px;" id="elpxzkp9yxh2" class="animable"></path></g><defs>     <filter id="active" height="200%">         <feMorphology in="SourceAlpha" result="DILATED" operator="dilate" radius="2"></feMorphology>                <feFlood flood-color="#32DFEC" flood-opacity="1" result="PINK"></feFlood>        <feComposite in="PINK" in2="DILATED" operator="in" result="OUTLINE"></feComposite>        <feMerge>            <feMergeNode in="OUTLINE"></feMergeNode>            <feMergeNode in="SourceGraphic"></feMergeNode>        </feMerge>    </filter>    <filter id="hover" height="200%">        <feMorphology in="SourceAlpha" result="DILATED" operator="dilate" radius="2"></feMorphology>                <feFlood flood-color="#ff0000" flood-opacity="0.5" result="PINK"></feFlood>        <feComposite in="PINK" in2="DILATED" operator="in" result="OUTLINE"></feComposite>        <feMerge>            <feMergeNode in="OUTLINE"></feMergeNode>            <feMergeNode in="SourceGraphic"></feMergeNode>        </feMerge>            <feColorMatrix type="matrix" values="0   0   0   0   0                0   1   0   0   0                0   0   0   0   0                0   0   0   1   0 "></feColorMatrix>    </filter></defs></svg>